<?xml version="1.0" encoding="utf-8"?>
<!-- Generator: Adobe Illustrator 22.0.1, SVG Export Plug-In . SVG Version: 6.00 Build 0)  -->
<svg version="1.1" id="Layer_1" xmlns="http://www.w3.org/2000/svg" xmlns:xlink="http://www.w3.org/1999/xlink" x="0px" y="0px"
	 width="250.1px" height="250.1px" viewBox="0 0 250.1 250.1" enable-background="new 0 0 250.1 250.1" xml:space="preserve">
<g>
	<path fill="#FFFFFF" d="M125.05,249.69c68.83,0,124.64-55.8,124.64-124.63c0-68.83-55.8-124.64-124.64-124.64
		S0.41,56.22,0.41,125.05C0.41,193.89,56.22,249.69,125.05,249.69"/>
	<path fill="#A6093D" d="M125.27,5.54c-66,0-119.51,53.51-119.51,119.51c0,66,53.51,119.51,119.51,119.51
		s119.51-53.51,119.51-119.51C244.78,59.05,191.27,5.54,125.27,5.54z M123.37,215.54c-49.97,0-90.49-40.51-90.49-90.49
		s40.51-90.49,90.49-90.49c49.98,0,90.49,40.51,90.49,90.49S173.35,215.54,123.37,215.54z"/>
	<path fill="none" stroke="#000000" stroke-width="0.7292" d="M0.41,125.05c0-68.83,55.8-124.64,124.64-124.64
		s124.64,55.8,124.64,124.64c0,68.83-55.8,124.63-124.64,124.63S0.41,193.89,0.41,125.05z M124.32,210.42
		c47.15,0,85.37-38.22,85.37-85.37c0-44.62-38.22-85.37-85.37-85.37s-85.37,38.22-85.37,85.37S77.17,210.42,124.32,210.42z"/>
	<path fill="#002D72" d="M185.18,65.43c-16.47-16.81-38-26.06-60.62-26.06h-0.36v171.46h0.36c47.27,0,85.73-38.46,85.73-85.73
		C210.29,103.46,201.14,81.71,185.18,65.43z"/>
	<path fill="#FFFFFF" d="M141.92,194.87v0.42c-1.35-0.07-2.7-0.07-4.04,0v-0.42l0.98-0.1c0.26-0.03,0.3-0.17,0.34-0.37
		c0.1-0.55,0.09-3.42,0.04-4.9c0.01-0.24-0.07-0.26-0.11-0.26c-0.02,0-0.1,0.03-0.23,0.09c-0.68,0.3-1.11,0.49-1.29,0.59l-0.06-0.04
		c-0.04-0.22-0.07-0.44-0.11-0.65l0.01-0.03c1.08-0.3,2.15-0.66,3.2-1.07l0.11,0.08c-0.02,0.34-0.04,0.67-0.06,1.01
		c-0.04,2.22-0.05,2.63-0.03,4.66c0.02,0.74,0.04,0.82,0.17,0.89C141.05,194.85,141.59,194.82,141.92,194.87z M147.32,191.2
		c0,2.96-2.11,4.28-3.82,4.28l-0.41-0.33l0.13-0.2c0.12,0.04,0.24,0.06,0.38,0.06c0.05,0,2.09,0.15,2.35-3.05
		c-0.51,0.46-0.73,0.67-0.86,0.71c-0.25,0.08-0.5,0.13-0.74,0.13c-0.72,0-1.6-0.52-1.6-1.98c0-1.64,1.04-2.56,2.31-2.56
		C146.64,188.25,147.32,189.5,147.32,191.2z M145.96,190.66c0-0.68-0.13-1.87-1.05-1.87c-0.62,0-0.93,0.55-0.93,1.46
		c0,1.19,0.51,1.63,1.06,1.63c0.34,0,0.67-0.2,0.81-0.52C145.92,191.19,145.96,190.96,145.96,190.66z M152.78,194.88v0.41
		c-0.58,0-1.16-0.03-1.74-0.04l-1.79,0.04v-0.43c0.56-0.04,0.87-0.07,0.95-0.08c0.21-0.05,0.22-0.15,0.26-0.39
		c0.01-0.06,0.02-0.36,0.04-0.91l-2.56,0.02l-0.07-0.43c0.37-0.96,1.91-3.83,2.61-4.68c0.44-0.08,1.27-0.25,1.31-0.26l0.09,0.09
		c-0.1,0.98-0.1,3.78-0.09,4.41l0.19,0l0.74-0.03l0.03,0.06l-0.02,0.45c0,0.08,0.01,0.2,0.02,0.37l-0.96-0.01
		c-0.01,0.53,0,0.88,0.02,1.05c0.03,0.16,0.12,0.25,0.29,0.28L152.78,194.88z M150.57,189.08c-0.74,1.13-1.39,2.31-1.93,3.55h1.87
		C150.52,191.45,150.53,190.27,150.57,189.08z M156.83,194.75c-0.13-0.07-0.15-0.14-0.17-0.89c-0.02-2.03-0.01-2.44,0.03-4.66
		c0.02-0.34,0.04-0.67,0.06-1.01l-0.11-0.08c-1.05,0.41-2.12,0.77-3.2,1.07l-0.01,0.03c0.05,0.22,0.07,0.44,0.11,0.65l0.06,0.04
		c0.19-0.1,0.62-0.3,1.29-0.59c0.13-0.06,0.21-0.09,0.23-0.09c0.04,0,0.12,0.02,0.11,0.26c0.05,1.48,0.06,4.35-0.04,4.9
		c-0.04,0.21-0.07,0.34-0.34,0.37l-0.98,0.1v0.42c1.35-0.07,2.7-0.07,4.04,0v-0.42C157.6,194.82,157.05,194.85,156.83,194.75z"/>
	<path fill="#FFFFFF" d="M164.76,67.27c-1.19,0.38-2.2,1.66-2.92,2.66c-0.76,1.87-1.52,3.75-1.21,6.07c3.51,0.45,7.3-0.83,9.2-3.89
		v12.62c-1.87-3.46-5.64-3.37-8.96-3.89c-1.09,1.23,0,2.75,0,4.12c0.69,2.09,2.23,3.58,3.89,4.84v0.24h-12.59v-0.24
		c1.19-0.19,2.02-1.83,2.66-2.89c0.59-1.87,1.94-4.05,0.74-6.07c-3.65-0.02-7.09,1.45-8.99,4.6V72.34c1.99,3.11,5.36,3.89,8.73,4.12
		c1.35-2.49-0.24-4.98-1.45-7.02l-2.66-2.18H164.76z M154.33,165.15c-0.36-0.93-1.33-1.38-2.16-1.68c-1.35,0.36-3.25,0.93-3.41,2.66
		c3.25,2.94-1.16,6.31,0.97,9.7c1.07,2.04,3.44,4.01,6.07,3.87c1.11,0.45-0.07,1.21,0.36,1.94c0.59-0.09,0.7-0.82,1.09-0.97
		c0.59,0.83-1.56,1.26-1.56,1.94c0.99-0.26,2.39-0.19,3.27-0.73c0.95,0.24,1.78,1.59,2.89,0.73c-0.81-0.71-1.37-1.52-1.68-2.42
		c1.07-1.14,2.75-0.81,4.1-1.21c2.56-0.21,4.72,1.04,6.31,2.66l0.24-0.24c0.5-1.21,0.26-2.94-0.71-3.63c3.2-0.59,6.52-2.37,7.99-5.6
		c-2.35,0.57-4.39,1.87-7.02,1.71c-4.67,2.23-11.43,5.17-16.24,1.21c-0.43-1.08-0.2-1.35,0.59-2.03c0.28-0.14,0.73-0.53,0.86-0.39
		l-0.92,0.86c-0.63,1.01,0.36,1.33,0.95,1.83c5.5,2.42,11.87,0.26,15.72-3.42c-1.45,0.43-3.08,0.4-4.6,0.73
		c-0.81-0.59,0.59-0.85,0.5-1.45c-3.01,1.97-6.05-0.36-8.49-1.94c-1.94-0.78-3.68,0.33-5.34,0.97
		C150.94,168.92,154.97,167.15,154.33,165.15 M150.94,165.65c0.33-0.24,0.36-0.83,0.73-0.26c0.07,0.24-0.12,0.36-0.24,0.5
		C151.2,165.96,151.08,165.77,150.94,165.65 M174.13,99.36c-0.36-0.93-1.33-1.38-2.16-1.68c-1.35,0.36-3.25,0.93-3.42,2.66
		c3.25,2.94-1.16,6.31,0.97,9.7c1.07,2.04,3.44,4.01,6.07,3.87c1.11,0.45-0.07,1.21,0.36,1.94c0.59-0.09,0.7-0.82,1.09-0.97
		c0.59,0.83-1.57,1.26-1.57,1.94c0.99-0.26,2.39-0.19,3.27-0.73c0.95,0.24,1.78,1.59,2.89,0.73c-0.81-0.71-1.37-1.52-1.68-2.42
		c1.07-1.14,2.75-0.81,4.1-1.21c2.56-0.21,4.72,1.04,6.31,2.66l0.24-0.24c0.5-1.21,0.26-2.94-0.71-3.63c3.2-0.59,6.52-2.37,7.99-5.6
		c-2.35,0.57-4.39,1.87-7.02,1.71c-4.67,2.23-11.43,5.17-16.24,1.21c-0.43-1.08-0.2-1.35,0.59-2.03c0.28-0.14,0.73-0.53,0.86-0.39
		l-0.92,0.86c-0.63,1.01,0.36,1.33,0.95,1.83c5.5,2.42,11.87,0.26,15.72-3.42c-1.45,0.43-3.08,0.4-4.6,0.73
		c-0.81-0.59,0.59-0.85,0.5-1.45c-3.01,1.97-6.05-0.36-8.49-1.94c-1.94-0.78-3.68,0.33-5.34,0.97
		C170.74,103.13,174.77,101.35,174.13,99.36 M170.74,99.86c0.33-0.24,0.36-0.83,0.73-0.26c0.07,0.24-0.12,0.36-0.24,0.5
		C171,100.17,170.88,99.98,170.74,99.86 M138.55,99.32c-0.36-0.93-1.33-1.37-2.16-1.68c-1.35,0.36-3.25,0.93-3.41,2.66
		c3.25,2.94-1.16,6.31,0.97,9.7c1.07,2.04,3.44,4.01,6.07,3.87c1.11,0.45-0.07,1.21,0.36,1.94c0.59-0.09,0.7-0.82,1.09-0.97
		c0.59,0.83-1.56,1.26-1.56,1.94c0.99-0.26,2.39-0.19,3.27-0.73c0.95,0.24,1.78,1.59,2.89,0.73c-0.81-0.71-1.37-1.52-1.68-2.42
		c1.07-1.14,2.75-0.81,4.1-1.21c2.56-0.21,4.72,1.04,6.31,2.66l0.24-0.24c0.5-1.21,0.26-2.94-0.71-3.63c3.2-0.59,6.52-2.37,7.99-5.6
		c-2.35,0.57-4.39,1.87-7.02,1.71c-4.67,2.23-11.43,5.17-16.24,1.21c-0.43-1.08-0.2-1.35,0.59-2.03c0.28-0.14,0.73-0.53,0.86-0.39
		l-0.92,0.86c-0.63,1.01,0.36,1.33,0.95,1.83c5.5,2.42,11.87,0.26,15.72-3.42c-1.45,0.43-3.08,0.4-4.6,0.73
		c-0.81-0.59,0.59-0.85,0.5-1.45c-3.01,1.97-6.05-0.36-8.49-1.94c-1.94-0.78-3.68,0.33-5.34,0.97
		C135.16,103.1,139.19,101.32,138.55,99.32 M135.16,99.82c0.33-0.24,0.36-0.83,0.73-0.26c0.07,0.24-0.12,0.36-0.24,0.5
		C135.42,100.13,135.3,99.94,135.16,99.82"/>
	<path d="M117.67,135c-0.02-1.26,0.84-2.7,0.84-4.24c-0.3-0.09-0.42,0.28-0.63,0.42c-0.18-1.14,0.28-2.54,0.42-3.8l-0.21,0.21
		c-0.19,0.05-0.3-0.11-0.42-0.21c0.21-1,0.42-1.98,0.63-2.98c-0.95-0.46,0-1.56,0-2.33c0.28-2.02-1.47-3.21-2.54-4.66
		c-1.35-0.53-1.56,0.82-2.33,1.26c-2.87,7.08-0.65,16.25-1.91,23.98l-0.63,1.07c-0.68-1.72-0.4-3.82-1.07-5.52l0.21-0.21l0.21,0.21
		c0.18-2.05-0.28-3.56-0.42-5.73c0.14-0.26,0.4-0.21,0.63-0.21c0.07-1.91-0.18-3.94,0.21-5.73l0.65,0.63v-1.47
		c-0.14-1.07-0.61-2.26-0.42-3.19c-0.4-0.14-0.16-0.56-0.23-0.84c0.23-0.39,0.72-0.14,1.07-0.21c0.18-1.19-0.28-2.12-0.42-3.19
		c-0.3-0.61-0.73-1.7-0.21-2.12c0.23,0.28,0.54,0.33,0.84,0.42c0.03-2.1-2.79-4.28-0.84-5.94l-4.03-4.03
		c0.65-0.23,0.19-0.94,0.63-1.26c-2.56-1.77-5.22-3.31-7.85-4.89c-0.95,0.79,0,1.84,0,2.75c-1.07,0.61-2.4,0.58-3.61,0.86
		c0.14,3.14-3.82,1.84-5.73,2.75c-0.09,1.59,0.68,3.54,1.91,4.68l0.65-0.65c1.33-0.03,2.66-0.07,3.59,0.86
		c-0.95,1.09-2.8,0.6-4.03,0.42c-0.39,0.23-0.14,0.7-0.21,1.05c1.16,1.86,3.49,1.73,5.52,1.91c0.98,0.18,1.58,1.23,1.7,2.12
		c-0.37,0.23-0.35,0.61-0.63,0.86c-2.8,0.35-3.89,4.42-7.01,4.45c-2.54-3.1-5.21-7.29-9.55-7.43c-1.33,0.67-0.14,1.84-0.21,2.77
		c0.28,1.63,2.12,0.39,2.98,1.05c1.45,0.65,1.67,2.15,2.12,3.4l0.21-0.21c0.35,0.77,1.02,1.42,1.05,2.33
		c0.97-0.14,0.93,1.26,1.49,1.28c0.21,1.12,3.02,1.77,1.07,3.17c-1.84-2.26-3.68-4.52-5.52-6.78c-2.15-0.98-2.98-2.51-4.66-4.24
		c0.05-1.44-0.32-3.03,1.26-3.82c1.67-2.1,1.42-6.05,0.21-8.27c-1.68-0.79-1.51-2.51-1.47-4.24c1.54-1.12,2.44-2.89,2.33-4.89
		c0.45-1.12-1-2.42,0.42-2.96c6.24-0.54,12.99-1.7,19.09-0.65c1.17,0.19,0.63,1.45,1.07,2.12c0.61,0.14,1.03-0.19,1.49-0.42
		c0.24-2.84,0.49-6.2-0.21-8.9c-6.73-3.44-14.36-0.72-21.65-0.42l-0.42-0.23c0.63-2.79,0.05-5.8-2.35-7.41
		c-1.21-2.89,2.1-3.37,2.14-5.73c0.67-2.12-0.26-4.1-0.86-5.94c-0.86-0.81-1.4-1.95-2.96-1.49c-1.03,0.6-1.88,1.65-2.12,2.77
		c-1.67,4.4,2.03,6.56,1.91,10.61c-2.37,1.98-2.14,5.57-1.49,8.27c-4.03,0.42-8.06,0.84-12.1,1.28c-2.89,0.03-5.78,0.07-8.27-0.86
		c0.05-0.65-0.05-1.23-0.44-1.7c-0.4-0.21-1.16-0.84-1.47,0l-0.21,8.71c1.6,1.66,4.12,2.05,6.57,2.12l0.21-0.21l0.21,0.21l0.21-0.21
		l0.21,0.21c5.08,0.21,9.5-1.18,14.43-1.28l0.44,0.42c-0.47,2.19-0.28,4.63,1.47,6.15c0.18,2,0.81,3.91-1.05,5.31
		c-1.1,2.84-0.93,6.73,1.49,8.92l-0.21,0.21l-0.23-0.21c-4.75-0.4-7.06,4.45-10.18,7.42c-2.09-0.14-3.38-2.68-4.87-3.82
		c-0.68-0.65-1.84-0.18-2.33-1.26c0.07-4.3,5.15-1.03,6.78-3.82c0.31-0.44,0.31-1.26,0-1.7c-0.98,0.77-1.98,0.28-2.96,0.42
		c-0.26-0.35-1.12-0.12-0.86-0.84c0.88-1.1,2.68-0.61,3.82-0.42v0.21h0.63c0.74-1.4,1.66-2.7,1.49-4.47
		c-0.75-0.61-1.98-0.68-2.75-0.63c-0.21-0.07-0.3,0.11-0.42,0.21c-0.23-0.39-0.72-0.14-1.07-0.21c-1.05,0-1.07-1.17-1.28-1.91
		c-0.79-0.84-2.24-0.11-3.17-0.63c-1.33-0.32-0.4-1.19-0.21-1.91c-0.26-0.65-0.18-1.26-1.07-1.28c-2.33,2.75-5.73,3.4-8.06,5.73
		c0.42,0.21,0.86,0.42,1.28,0.63l-3.82,4.26c0.37-0.02,0.56,0.42,0.84,0.63c-0.23,1.81-1.28,3.28-1.47,5.08l0.84-0.21
		c0.28,1.7-0.49,3.49-1.07,5.1c-0.89-0.37-0.7-1.56-1.05-2.33c-0.56-0.93-1.47-1.89-2.75-1.49c-0.49,1.37-2.51,2.37-2.14,3.82
		c-0.12,0.1-0.21,0.28-0.42,0.21c0.02,1.02,0.91,2.38,0.21,2.96c0.07,1.07,0.79,2.12,0.21,3.19L42.54,128v0.84
		c0.14,1.07,0.61,2.26,0.44,3.19l-0.65-0.63c0.14,1.44,0.93,2.59,1.07,4.03l-0.21,0.21l-0.21-0.21c0.03,1.45,0.98,2.54,1.47,3.82
		c-0.21,0.39-0.7,0.14-1.05,0.21c1.16,0.65,0.96,1.87,2.12,2.54c-0.21,0.14-0.33,0.51-0.63,0.42v0.42c1.74,1.44,2.14,4.77,5.08,4.68
		l-0.21,2.96c0.49,0.07,1.12-0.18,1.49,0.21l-0.21,2.56h0.63c1.26-0.46,0.56,1.03,1.05,1.47c2.24-0.54,0,2.42,1.91,2.56
		c-0.65,0.9-0.84,1.98-1.26,2.96c0.19-0.07,0.3,0.1,0.42,0.21c-0.26,0.14-0.21,0.4-0.21,0.63h0.21c0.42,0.23-0.07,0.6-0.21,0.86
		h0.21c0.65,0.39-0.3,0.65-0.21,1.05l0.63,0.44c-0.09,0.7,0.03,1.3,0.86,1.91c-1.23,4.42,4.05,4.86,5.94,7.63v0.44
		c1.28,0.32,2.96,0.32,4.24,0c0.65-0.4,1.54-1.05,1.47-1.91c-0.21-0.56-0.33-1.33-1.05-1.49c-3.05,0.63-4.52-2.54-6.78-3.82
		c0.12-3.54,0.09-6.94,3.59-8.69l0.21,0.21c0,0.23,0.05,0.51-0.21,0.63l0.21,0.21c0.25,0.47-0.4,0.63-0.42,0.86
		c0.35,0.07,0.84-0.19,1.07,0.21c0.21,0.54-0.4,0.74-0.21,1.26c1.1,1.11,2.94,1.31,4.45,1.91c0.37,0.6,0.88,1.31,1.28,1.7
		c1.14,0.11,3.26,0.86,3.8-0.63c0.39-0.93,0.4-1.75,0.23-2.77c-0.21-2.16-2.84-1.12-4.26-1.68c-0.81-0.47-2.28-0.65-1.68-2.12
		c1.82-5.54,6.22-11.08,3.59-17.41c-1.26-1.09-2.73-1.67-4.45-1.7c-1.07,0.51-2.3,1.91-3.4,1.07c0.84-2.58,2.35-4.87,3.19-7.43
		c1.26,0.18,2.72,0.35,3.4,1.49c0.88-0.03,0.95-0.72,1.7-1.07l0.42,0.42c0.09-0.3,0.14-0.61,0.42-0.84
		c0.12,0.11,0.23,0.28,0.42,0.21c0.14-0.95,0.72-1.7,1.07-2.54l0.63,0.21l0.42-0.86c0.21-0.05,0.3,0.11,0.42,0.21
		c-0.12-1.93,0.89-3.6,1.91-4.87c0.4,1.58,0.74,3.17,2.35,4.24c-0.07,0.93,0.18,1.98-0.21,2.75c-2.14,0.72-4.91,1.68-5.52,4.26
		c-1.14,0.65,0.6,3.24-1.49,2.75c-0.19,1.47,1.02,1.33,1.91,1.91c2.02,6.56-4.87,12.3-0.63,18.46c2.19,0.96-0.25,2.63,0.84,4.24
		c0.81-0.12,1.6-0.25,2.12-1.05c2.72,1.26,6.2,1.26,8.92,0c0.61,0.58,1.12,1.38,2.12,1.05c0.49-0.98,0.03-2.11-0.44-2.96
		c1.7-1.74,2.24-4.31,2.56-6.8c-1.23-3.89-2.82-7.66-2.77-12.09c0.09-0.91,1.11-1.4,1.91-1.47c-0.49-1.52-0.67-3.54-1.47-5.1
		c-1.24-2.05-3.31-3.02-5.52-3.19c-0.79-0.65-0.28-1.82-0.42-2.75c0.95-0.45,1.49-1.45,1.91-2.33c0.72-0.54-0.19-2.96,1.47-1.91
		c0.49,1.66,1.98,2.91,1.7,4.87l0.42-0.42c0.37,0.26,0.18,0.75,0.44,1.07c1.72-0.68,0.81,1.74,1.89,2.33l0.23-0.21
		c0.35,0.21,0.35,0.6,0.63,0.84l0.42-0.42c0.46,0.51,0.84,0.72,1.28,1.07c0.82-1.21,2.54-1.14,3.82-1.7
		c0.45,2.72,2.42,4.82,3.17,7.41c-1.26,0.93-2.54-0.7-3.82-1.05c-1.61-0.03-2.88,0.82-4.03,1.91c-2.86,6.66,2.23,12.15,3.82,18.04
		c-1.07,2.12-4.22,1.05-5.94,2.54c-0.09,1.14-0.56,2.65,0.21,3.61c1.1,1.16,3,0.37,4.26,0c0.81-2.02,3.52-2.12,5.3-3.19
		c0.05-0.49-0.21-0.88-0.42-1.26l1.28-0.65c-0.32,0.09-0.44-0.28-0.65-0.42l0.42-0.42c-0.19,0.07-0.3-0.11-0.42-0.21l0.42-0.42
		c1.05,1.1,1.74,1.7,2.98,2.33c0.14,2.05,0.6,4.22,0.42,6.15c-2.26,1.74-3.65,4.23-6.78,3.82c-0.56,0.46-0.67,1.09-0.86,1.7
		c0.28,0.42,0.24,1.16,0.86,1.26c1.3,1.03,3.66,0.79,5.08,0.21c-0.14-0.37,0.24-0.51,0.21-0.84l5.31-4.03
		c-0.07-0.42,0.18-0.98-0.21-1.28c-0.32-1.72,1.35-2.24,1.49-3.61c0.1-0.77-0.19-0.97,0.21-1.89c-0.82-0.66,1.02-0.72-0.21-1.28
		c0.12-0.12,0.23-0.28,0.42-0.21c0.07-1.18-0.93-1.89-1.07-2.98c1.47-0.18,0.61-1.93,0.86-2.54c0.4-0.07,0.72,0.11,1.05,0.21v-0.63
		c-0.51-1.19,0.81-1.09,1.49-1.07c-0.07-0.84,0.18-1.82-0.21-2.54l1.7-0.42c0-1.07-0.96-2.26,0-3.19c2.79,0,3.47-3.3,4.66-4.87
		h-0.42c-0.21-0.86,1.35-1.89,1.7-2.98c-0.37-0.14-0.53,0.25-0.86,0.21c-0.3-1.4,1.56-2.45,1.49-4.03H117.67z M50.19,144.13
		l-0.42-1.28l-0.63-18.88l-0.21-1.91h1.05c0.32,2.1-0.91,3.82-0.42,5.73l0.63-0.65c0.07,1.91-0.18,3.96,0.21,5.73
		c0.21,0.07,0.3-0.09,0.44-0.21c0.24,1.86-0.47,4.1-0.23,5.94h0.44C50.75,140.45,49.84,142.03,50.19,144.13z M78.85,67.32
		c1.14-1.31,1.88,0.47,2.33,1.26c0.49,1.21,0.04,2.54-0.44,3.61c-0.12-0.4-0.53-1.07-1.05-1.49c-0.51,0.4-0.79,0.89-0.84,1.49
		C77.99,70.56,77.99,68.93,78.85,67.32z M78.85,81.1c0.16,0.28,0.4,1.45,1.26,1.07c0.81-0.24,0.12-1.12,0.63-1.49
		c0.86,0.96,1.07,2.84,0.65,4.24l-0.42,0.44c-0.14-0.39-0.58-2.03-1.49-1.28c-0.44,0.3-0.03,0.95-0.42,1.28
		C78.55,84.02,78.16,82.48,78.85,81.1z M61.86,94.68c-2.1-0.24-4.36-0.18-5.94-1.7v-5.3c1.65,0.91,3.94,0.88,5.73,0.84l0.63,0.21
		c10.68-0.81,20.95-2.58,31.62-3.38c3.31-0.04,6.63-0.07,9.55,0.84c-0.26,0.53-0.35,1.39,0,1.91l-0.21,0.21
		c-0.07,0.61,0.12,1.91,0,2.54c0.23,0.3,0.44,1.07-0.21,1.07c-2.28-0.86-4.4-0.11-6.8-0.63C84.74,92.3,73.61,94.26,61.86,94.68z
		 M78.62,96.8c-0.35-0.95-0.28-1.45,0.23-2.33h0.42c-0.02,0.39,0.42,0.56,0.63,0.86l1.07-1.07c0.63,0.96,0.63,3.08,0,4.24
		c-0.6-0.21-0.19-1.91-1.49-1.26c-0.14,0.42-0.6,0.7-0.42,1.26C78.92,97.94,78.44,97.24,78.62,96.8z M79.06,112.09
		c-0.65-1.3-0.65-3.38,0-4.66c0.35,0.39,0.09,1.23,0.84,1.26c0.93,0.19,0.74-1.02,1.07-1.26c1.12,1.3,0.61,3.51,0,4.87
		c-0.52-0.37,0.18-1.24-0.65-1.49c-0.44-0.05-0.81,0.05-1.05,0.44C79.2,111.53,79.44,111.93,79.06,112.09z M74.8,122.06
		c-1.39,2.28-3.47,4.3-4.87,6.57l-0.63-0.84c0.65-0.86,2.1-1.58,2.33-2.98c1.63-0.19,0.56-2.44,2.33-2.75
		c-0.12-1.4,0.86-2.73,2.12-3.19l1.91-0.21C77.15,119.89,76.41,121.34,74.8,122.06z M78.41,118.24l0.44-1.07
		c-0.09,0.37,0.18,0.84-0.23,1.07H78.41z M81.18,133.09c2.54,0.18,4.1,2.24,4.87,4.47v0.42H74.59c0.14-1.47,0.44-2.31,1.49-3.4
		c0.68-0.53,1.67-1.26,2.77-1.26c0.37,0.86-0.02,2.23,1.26,2.54C81.11,135.19,80.83,134.01,81.18,133.09z M81.18,125.46
		c-0.21-0.07-0.31,0.09-0.44,0.21c0.12-0.7-0.11-1.26-0.63-1.7c-0.86,0.16-0.77,1.11-1.05,1.7c-0.65-1.37-0.65-3.52,0-4.89
		c0.28,0.49,0.21,1.14,0.84,1.49c0.84,0.16,0.79-0.82,1.07-1.28C81.6,122.46,81.55,123.88,81.18,125.46z M90.71,177.87
		c-0.32-0.3-0.93-0.3-1.26,0c-0.32-0.65-0.32-1.68,0-2.33c0.39-1.26-0.72-1.35-0.42-2.56c-0.11-0.58-0.6-0.86-1.07-0.42l-1.05-2.75
		c0.05,0.19-0.11,0.3-0.23,0.42c-0.14-0.49-0.6-0.86-0.42-1.49c-0.21,0.77-0.33,1.75-1.05,2.12l-0.44-1.05
		c0.09,0.3-0.28,0.42-0.42,0.63l-1.47-2.33c-0.52,0.37,0.18,1.25-0.65,1.49l-0.42-0.44c-0.58,0.73,0.35,2.28-0.84,2.56
		c-0.4-0.3-0.14-0.86-0.23-1.28h-0.42c0.07,0.19-0.09,0.3-0.21,0.42c-0.6-0.49-0.56-1.26-0.84-1.91c-0.07,0.74-0.24,1.59-0.86,1.91
		l-0.63-1.05c-0.24,0.3-0.07,0.79-0.42,1.05c-0.53-0.75-0.86-1.98-1.28-2.96l-0.21,1.91l-0.63-0.65c-0.61,1.02-0.58,2.28-0.86,3.4
		c-0.04,0.61-0.88,0.84-1.26,0.42c0.32,2.12-0.65,3.96,0,5.94c-0.61,0.14-1.53,0.47-1.49,1.28c0.21,0.98,0.35,2.17,1.05,2.75
		c2.16-1.23,5.24-0.24,7.64-0.84c0.28,0.68,0.98,0.33,1.49,0.42c1.37-1.42,3.12,0.03,4.87-0.42l0.44,0.42l0.84-0.84
		c1.09-0.21,2.21-0.47,3.19-0.42C91.4,180.24,91.66,178.68,90.71,177.87z M89.03,178.29c-2.05-0.81-2.16,1.75-4.26,0.84
		c-2.33-1.4-4.52,0.04-6.99-0.42c-1.19,0.39-1.86,0.14-3.19,0.21c0.07-0.19-0.09-0.3-0.21-0.42c0.09-0.93-0.12-2.26-0.21-3.4
		c0.14,0.45,0.61,0.95,1.07,1.07c1-0.42-0.14-1.02,0.21-1.7c0.14,0.39,0.56,0.14,0.84,0.21c0.35-0.3,0.26-0.95,0-1.26
		c0.32,0.07,0.42-0.3,0.65-0.44c-0.23-0.28-0.49-0.82-0.23-1.05c0.54,0.3-0.2,1.29,0.65,1.26l0.21-0.21l0.63,0.65l0.42-0.86
		c-0.05,0.21,0.11,0.3,0.23,0.42l0.63-1.05c0.82,1.14,2.33,2.37,2.33,4.03c0.4,0.14,0.6-0.19,0.84-0.42v-0.65l0.65,1.91
		c0.74-1.14,0.21-2.81,1.26-3.82c0.3,0.37,0.24,1.03,0.86,1.07c0.38-0.23,0.14-0.7,0.21-1.07c0.7,0.37-0.44,0.75,0.21,1.07
		c0.72-0.37,0.84-1.35,1.07-2.12c0.28,0.7,0.24,1.54,0.84,2.12l0.42-0.42c-0.11,0.33-0.28,0.65-0.21,1.05
		c0.12,0.12,0.23,0.28,0.42,0.21l0.21-0.21c0.14,0.93-0.35,2.3,0.44,2.77V178.29z M59.22,92.59c0.03,0.03,0.01,0.1-0.02,0.11
		c-0.14-0.02-0.31-0.03-0.51-0.04c-0.21-0.01-0.39-0.02-0.52-0.02c-0.05-0.02-0.04-0.1,0-0.11l0.14-0.01c0.1,0,0.16-0.04,0.18-0.06
		c0.02-0.02,0.04-0.09,0.07-0.28l0.07-0.61c0.01-0.1,0.01-0.12-0.09-0.12l-0.65-0.04c-0.14-0.01-0.15,0-0.24,0.13l-0.36,0.5
		c-0.17,0.24-0.22,0.31-0.22,0.33c0,0.03,0.01,0.06,0.1,0.07l0.17,0.04c0.03,0.03,0.02,0.1-0.02,0.11
		c-0.14-0.02-0.28-0.03-0.46-0.04c-0.18-0.01-0.34-0.02-0.51-0.02c-0.02-0.03-0.01-0.09,0.02-0.11l0.12-0.01
		c0.14-0.01,0.24-0.07,0.34-0.17c0.14-0.16,0.43-0.5,0.81-0.98l0.86-1.08c0.21-0.26,0.28-0.37,0.3-0.45
		c0.16-0.01,0.33-0.13,0.34-0.13c0.02,0,0.05,0.02,0.05,0.04c0,0.08-0.04,0.27-0.08,0.66l-0.19,1.71c-0.06,0.5-0.05,0.51,0.19,0.55
		L59.22,92.59z M58.57,91.28c0.08,0.01,0.09-0.01,0.1-0.08l0.13-0.99c0-0.06,0.01-0.12,0-0.12c-0.01,0-0.04,0.02-0.19,0.21
		l-0.68,0.88c-0.04,0.05-0.03,0.07,0.07,0.07L58.57,91.28z M61.55,90.12c0.1-0.25,0.11-0.34,0.05-0.38l-0.1-0.08
		c-0.01-0.02,0-0.05,0.02-0.06c0.09-0.03,0.34-0.08,0.54-0.07l0.02,0.03c-0.09,0.25-0.16,0.42-0.31,0.8
		c-0.49,1.23-0.73,1.95-0.78,2.08c-0.02,0.06-0.02,0.1,0.02,0.11c0.07,0,0.37-0.22,0.52-0.39c0.04,0,0.06,0.02,0.07,0.06
		c-0.13,0.25-0.56,0.61-0.8,0.6c-0.1,0-0.14-0.08-0.14-0.15c0-0.06,0.02-0.13,0.07-0.26l0.18-0.44l-0.02-0.01
		c-0.33,0.41-0.69,0.84-1.13,0.82c-0.18-0.01-0.27-0.15-0.26-0.34c0.01-0.32,0.28-0.86,0.65-1.17c0.32-0.27,0.61-0.39,0.83-0.38
		c0.07,0,0.18,0.05,0.23,0.15L61.55,90.12z M60.6,91.21c-0.19,0.16-0.53,0.58-0.68,0.87c-0.15,0.29-0.15,0.37-0.15,0.43
		c0,0.06,0.04,0.1,0.08,0.1c0.07,0,0.3-0.07,0.63-0.38c0.37-0.35,0.51-0.62,0.59-0.86c0.06-0.19,0.01-0.33-0.11-0.33
		C60.85,91.03,60.72,91.11,60.6,91.21 M63.61,91.27c-0.29,0.76-0.48,1.22-0.55,1.31C63,92.66,62.9,92.69,62.8,92.7l-0.12,0.01
		c-0.03,0.01-0.03,0.09-0.01,0.11c0.15-0.01,0.3-0.01,0.49-0.01c0.21,0,0.4,0.01,0.52,0.01c0.02-0.02,0.03-0.09,0.01-0.11
		l-0.19-0.03c-0.11-0.02-0.14-0.05-0.14-0.1c0-0.09,0.06-0.27,0.27-0.85l0.34-0.92c0.07-0.19,0.14-0.38,0.21-0.54h0.01
		c0.02,0.23,0.1,0.94,0.15,1.53c0.06,0.52,0.08,0.76,0.07,0.93c0.02,0.02,0.06,0.04,0.09,0.02c0.2-0.34,0.47-0.69,0.73-1.02
		l0.69-0.9c0.24-0.32,0.36-0.47,0.42-0.56l0.01,0.01c-0.04,0.14-0.1,0.34-0.17,0.57l-0.36,1.19c-0.09,0.29-0.18,0.52-0.23,0.58
		c-0.05,0.05-0.17,0.08-0.25,0.09l-0.12,0.01c-0.03,0.02-0.03,0.09,0,0.11c0.17-0.01,0.36-0.01,0.55-0.01
		c0.21,0,0.41,0.01,0.58,0.01c0.04-0.02,0.05-0.08,0.02-0.11l-0.15-0.01c-0.13-0.01-0.19-0.05-0.18-0.12c0-0.07,0.04-0.23,0.13-0.57
		l0.4-1.41c0.1-0.35,0.15-0.49,0.21-0.56c0.05-0.05,0.11-0.08,0.27-0.11l0.11-0.02c0.02-0.03,0.03-0.09,0-0.11
		c-0.14,0.01-0.28,0.01-0.46,0.01c-0.12,0-0.2,0-0.28-0.01c-0.02,0.08-0.1,0.26-0.44,0.7l-0.72,0.93c-0.17,0.22-0.35,0.46-0.52,0.67
		h-0.01c-0.02-0.2-0.05-0.44-0.1-0.83l-0.07-0.59c-0.05-0.39-0.09-0.67-0.02-0.89c-0.1,0.01-0.2,0.01-0.31,0.01
		c-0.14,0-0.29,0-0.5-0.01c-0.04,0.02-0.05,0.09-0.02,0.11l0.22,0.03c0.09,0.01,0.13,0.04,0.13,0.1c0,0.07-0.05,0.22-0.19,0.61
		L63.61,91.27z M68.56,90.77c0.08-0.04,0.2,0,0.23,0.06c-0.06,0.17-0.43,1.19-0.56,1.61c-0.02,0.08,0,0.11,0.04,0.1
		c0.08,0,0.21-0.08,0.46-0.32c0.03,0,0.06,0.02,0.07,0.06c-0.18,0.26-0.5,0.53-0.75,0.53c-0.11,0-0.14-0.08-0.14-0.12
		c0-0.03,0.01-0.07,0.04-0.18l0.14-0.41l-0.01,0c-0.31,0.41-0.76,0.74-0.98,0.75c-0.13,0-0.2-0.12-0.21-0.25
		c0-0.1,0.09-0.47,0.37-0.9c0.21-0.31,0.4-0.49,0.58-0.61c0.18-0.11,0.29-0.14,0.41-0.14c0.05,0,0.08,0.01,0.11,0.02
		c0.02,0.01,0.07,0.05,0.09,0.09L68.56,90.77z M67.78,91.31c-0.28,0.27-0.54,0.87-0.53,1.2c0,0.05,0.03,0.09,0.07,0.08
		c0.05,0,0.18-0.06,0.43-0.31c0.34-0.34,0.51-0.73,0.58-1c-0.03-0.09-0.11-0.16-0.23-0.16C67.99,91.13,67.92,91.18,67.78,91.31
		 M68.26,93.73c0-0.08,0.05-0.18,0.14-0.18c0.02,0,0.04,0.02,0.06,0.04c0.08,0.12,0.19,0.19,0.27,0.18
		c0.08-0.01,0.15-0.06,0.22-0.24c0.15-0.4,0.31-1.08,0.42-1.49c0.11-0.46,0.21-0.78,0.21-0.87c0-0.04-0.02-0.06-0.04-0.06
		c-0.1,0.01-0.32,0.24-0.43,0.37c-0.04,0-0.07-0.04-0.08-0.07c0.09-0.17,0.47-0.58,0.77-0.59c0.06,0,0.12,0.06,0.12,0.13
		c0.01,0.11-0.11,0.53-0.2,0.89c-0.08,0.31-0.23,0.95-0.35,1.3c-0.14,0.41-0.38,0.82-0.78,0.84C68.36,93.97,68.27,93.83,68.26,93.73
		 M70.07,89.88c0.01,0.14-0.09,0.29-0.23,0.3c-0.12,0.01-0.17-0.08-0.17-0.16c-0.01-0.1,0.05-0.29,0.23-0.3
		C70.01,89.71,70.07,89.78,70.07,89.88 M71.78,91.25c0.01,0.25-0.1,0.7-0.41,1.06c-0.26,0.31-0.51,0.35-0.63,0.36
		c-0.29,0.02-0.5-0.18-0.5-0.57c0-0.28,0.14-0.74,0.42-1.05c0.22-0.24,0.42-0.33,0.61-0.34C71.6,90.69,71.78,90.92,71.78,91.25
		 M70.94,91.09c-0.24,0.37-0.38,0.93-0.37,1.17c0,0.16,0.07,0.29,0.21,0.28c0.1-0.01,0.21-0.06,0.34-0.26
		c0.18-0.28,0.35-0.9,0.34-1.14c-0.01-0.14-0.04-0.3-0.2-0.29C71.17,90.86,71.06,90.91,70.94,91.09 M72.8,91.02
		c0.03-0.13,0.08-0.44-0.15-0.42c-0.22,0.02-0.37,0.23-0.49,0.49c0,0.05,0.03,0.08,0.08,0.07c0.07-0.12,0.18-0.26,0.3-0.27
		c0.04,0,0.05,0.04,0.05,0.09c-0.08,0.45-0.29,1.28-0.33,1.47c-0.02,0.1,0.11,0.11,0.16,0.1c0.04-0.01,0.06-0.02,0.07-0.06
		c0.19-0.54,0.39-1.12,0.63-1.5c0.06-0.1,0.11-0.15,0.15-0.15c0.05,0,0.08,0.05,0.11,0.17c0.03,0.09,0.1,0.08,0.15,0.01
		c0.05-0.08,0.08-0.21,0.07-0.28c-0.01-0.07-0.04-0.22-0.2-0.2c-0.11,0.01-0.22,0.12-0.31,0.27c-0.1,0.16-0.29,0.55-0.4,0.81
		l-0.02,0L72.8,91.02 M75.09,90.58c0.04,0.34-0.38,0.62-1,0.89c-0.02,0.08-0.04,0.23-0.01,0.41c0.02,0.15,0.13,0.24,0.25,0.23
		c0.16-0.02,0.26-0.13,0.44-0.32c0.04-0.01,0.07,0.03,0.07,0.07c-0.23,0.37-0.48,0.48-0.67,0.5c-0.27,0.03-0.4-0.21-0.43-0.43
		c-0.04-0.29,0.07-0.86,0.52-1.3c0.21-0.21,0.38-0.27,0.51-0.28C74.95,90.33,75.08,90.47,75.09,90.58 M74.38,90.76
		c-0.15,0.21-0.23,0.43-0.27,0.57c0.29-0.13,0.42-0.23,0.56-0.41c0.12-0.15,0.14-0.29,0.14-0.33c-0.01-0.05-0.04-0.1-0.12-0.09
		C74.63,90.51,74.52,90.56,74.38,90.76 M77.06,90.56c0.05-0.24,0.08-0.62-0.24-0.56c-0.34,0.06-0.67,0.62-0.89,1.21l-0.01-0.01
		l0.15-0.87c0.02-0.11-0.04-0.18-0.14-0.16c-0.34,0.06-0.54,0.31-0.61,0.55c0,0.04,0.03,0.06,0.07,0.06
		c0.07-0.13,0.2-0.29,0.35-0.32c0.05-0.01,0.06,0.04,0.06,0.12c-0.01,0.07-0.24,1.47-0.24,1.51c-0.02,0.11,0.1,0.1,0.15,0.09
		c0.04-0.01,0.06-0.02,0.07-0.07c0.17-0.54,0.28-0.92,0.46-1.26c0.19-0.35,0.4-0.63,0.52-0.65c0.16-0.03,0.05,0.39,0.05,0.44
		l-0.22,1.26c-0.02,0.11,0.1,0.1,0.15,0.09c0.04-0.01,0.06-0.03,0.07-0.07c0.18-0.54,0.31-0.94,0.49-1.27
		c0.18-0.35,0.36-0.62,0.48-0.65c0.07-0.01,0.08,0.04,0.09,0.09c0.02,0.09-0.02,0.26-0.03,0.34c-0.05,0.24-0.14,0.71-0.2,0.95
		c-0.05,0.24-0.06,0.28-0.05,0.32c0.01,0.05,0.09,0.1,0.13,0.09c0.25-0.05,0.56-0.33,0.68-0.65c-0.01-0.03-0.02-0.07-0.08-0.05
		c-0.1,0.18-0.29,0.37-0.36,0.38c-0.03,0.01-0.03-0.03-0.03-0.08c0.01-0.04,0.19-0.83,0.23-1.07c0.02-0.11,0.03-0.26,0.01-0.33
		c-0.03-0.15-0.13-0.23-0.3-0.19c-0.3,0.06-0.57,0.44-0.88,1.2L76.97,91L77.06,90.56 M80.4,88.63c0.04-0.29,0-0.33-0.13-0.32
		l-0.18,0.01c-0.03-0.01-0.05-0.08-0.02-0.11c0.07-0.02,0.45-0.12,0.83-0.19c1.29-0.22,1.73,0.38,1.82,0.95
		c0.1,0.58-0.1,1.11-0.48,1.48c-0.45,0.43-1.02,0.59-1.43,0.66c-0.13,0.02-0.3,0.04-0.56,0.08c-0.18,0.03-0.34,0.06-0.49,0.1
		c-0.04-0.02-0.05-0.08-0.02-0.11l0.11-0.03c0.2-0.06,0.24-0.12,0.31-0.6L80.4,88.63z M80.46,90.63c-0.04,0.28,0.08,0.37,0.47,0.3
		c1.3-0.22,1.47-1.37,1.39-1.85c-0.07-0.43-0.26-1.11-1.37-0.92c-0.14,0.02-0.16,0.06-0.18,0.21L80.46,90.63z M84.42,88.92
		c0.05,0.34-0.36,0.63-0.98,0.91c-0.02,0.08-0.03,0.23,0,0.41c0.02,0.15,0.13,0.24,0.26,0.22c0.16-0.03,0.26-0.13,0.43-0.33
		c0.04-0.01,0.07,0.03,0.07,0.07c-0.22,0.38-0.47,0.49-0.66,0.52c-0.27,0.04-0.4-0.2-0.44-0.42c-0.04-0.28,0.05-0.86,0.49-1.31
		c0.21-0.22,0.38-0.28,0.51-0.3C84.28,88.66,84.4,88.8,84.42,88.92 M83.72,89.11c-0.15,0.22-0.22,0.44-0.25,0.58
		c0.28-0.14,0.41-0.24,0.55-0.42c0.12-0.15,0.14-0.29,0.13-0.33c-0.01-0.04-0.04-0.1-0.12-0.09C83.97,88.85,83.85,88.91,83.72,89.11
		 M85.12,88.93c0.02-0.05,0.01-0.09-0.02-0.09c-0.03,0.01-0.14,0.07-0.34,0.29c-0.04,0-0.07-0.03-0.07-0.07
		c0.21-0.32,0.53-0.53,0.68-0.56c0.03-0.01,0.06,0.02,0.08,0.03c0.03,0.02,0.04,0.06,0,0.2l-0.36,1.36c-0.01,0.05-0.01,0.1,0.03,0.1
		c0.08-0.01,0.29-0.2,0.42-0.4c0.05,0,0.07,0.03,0.08,0.07c-0.05,0.14-0.46,0.61-0.77,0.66c-0.02,0-0.05-0.01-0.08-0.03
		c-0.03-0.03-0.05-0.07-0.04-0.12L85.12,88.93z M85.51,87.56c0.02,0.14-0.06,0.3-0.2,0.32c-0.12,0.02-0.18-0.07-0.19-0.15
		c-0.01-0.1,0.03-0.29,0.2-0.32C85.44,87.39,85.5,87.46,85.51,87.56 M89.17,89.51c-0.06,0.3-0.24,0.37-0.55,0.4
		c-0.45,0.05-0.92-0.12-1-0.84c-0.06-0.52,0.14-1.15,0.43-1.49c0.27-0.31,0.6-0.56,1.13-0.61c0.44-0.05,0.6,0.12,0.57,0.55
		c0.02,0.03,0.1,0.03,0.11-0.01c0.03-0.18,0.09-0.45,0.15-0.62c-0.11-0.03-0.41-0.1-0.79-0.06c-0.63,0.07-1.12,0.31-1.51,0.74
		c-0.42,0.46-0.55,1.02-0.5,1.46c0.08,0.74,0.61,1.12,1.41,1.03c0.24-0.03,0.63-0.17,0.93-0.31c0.02-0.02,0.02-0.05,0.01-0.06
		c-0.05-0.02-0.06-0.07-0.05-0.13l0.09-0.46c0.07-0.37,0.09-0.4,0.26-0.46l0.07-0.03c0.04-0.03,0.03-0.1-0.01-0.11
		c-0.11,0.02-0.32,0.05-0.51,0.07c-0.19,0.02-0.34,0.03-0.55,0.05c-0.03,0.02-0.03,0.09,0.01,0.11l0.18,0
		c0.27,0,0.28,0.07,0.21,0.41L89.17,89.51z M91.1,87.28c0.12-0.5,0.15-0.63,0.2-0.8l-0.03-0.03c-0.21,0.04-0.48,0.15-0.56,0.19
		c-0.02,0.02-0.02,0.06,0.01,0.07l0.08,0.03c0.07,0.03,0.12,0.07,0.04,0.39l-0.52,2.21c-0.06,0.24-0.07,0.32-0.07,0.39
		c0.01,0.07,0.05,0.13,0.19,0.12c0.38-0.03,0.63-0.44,0.73-0.67c-0.01-0.05-0.03-0.07-0.08-0.06c-0.19,0.26-0.38,0.5-0.48,0.51
		c-0.05,0.01-0.06-0.04-0.03-0.15L91.1,87.28z M92.85,88.31c0.01,0.25-0.09,0.7-0.4,1.07c-0.26,0.31-0.51,0.35-0.63,0.36
		c-0.29,0.02-0.5-0.18-0.5-0.57c0-0.28,0.13-0.74,0.42-1.05c0.22-0.24,0.42-0.33,0.61-0.34C92.67,87.75,92.85,87.98,92.85,88.31
		 M92.01,88.16c-0.24,0.37-0.38,0.93-0.37,1.17c0,0.16,0.07,0.29,0.21,0.28c0.1-0.01,0.21-0.06,0.34-0.26
		c0.18-0.28,0.35-0.9,0.34-1.14c-0.01-0.14-0.05-0.3-0.2-0.29C92.24,87.92,92.13,87.97,92.01,88.16 M93.88,88.12
		c0.03-0.12,0.1-0.44-0.13-0.43c-0.22,0.01-0.38,0.21-0.51,0.46c0,0.06,0.03,0.08,0.08,0.07c0.07-0.11,0.19-0.25,0.31-0.25
		c0.04,0,0.05,0.04,0.04,0.09c-0.1,0.45-0.35,1.27-0.39,1.45c-0.03,0.1,0.11,0.11,0.15,0.11c0.04,0,0.06-0.02,0.08-0.06
		c0.21-0.53,0.44-1.1,0.7-1.47c0.06-0.09,0.11-0.14,0.15-0.14c0.05,0,0.08,0.06,0.1,0.17c0.02,0.1,0.1,0.09,0.15,0.02
		c0.05-0.07,0.09-0.21,0.08-0.28c0-0.07-0.03-0.22-0.19-0.21c-0.11,0.01-0.22,0.11-0.32,0.25c-0.11,0.16-0.32,0.53-0.44,0.79h-0.02
		L93.88,88.12 M95.31,88.01c0.02-0.05,0.02-0.09-0.01-0.09c-0.03,0-0.15,0.06-0.37,0.25c-0.04,0-0.07-0.04-0.06-0.08
		c0.24-0.29,0.59-0.47,0.74-0.48c0.03,0,0.06,0.02,0.07,0.04c0.03,0.03,0.03,0.07-0.02,0.2l-0.51,1.31c-0.02,0.05-0.02,0.1,0.02,0.1
		c0.08,0,0.31-0.17,0.46-0.35c0.05,0,0.07,0.03,0.07,0.07c-0.06,0.13-0.52,0.56-0.84,0.57c-0.02,0-0.05-0.01-0.07-0.04
		c-0.03-0.03-0.04-0.07-0.02-0.12L95.31,88.01z M95.85,86.69c0.01,0.14-0.09,0.29-0.23,0.29c-0.12,0-0.16-0.08-0.17-0.17
		c0-0.1,0.06-0.29,0.24-0.29C95.79,86.52,95.85,86.59,95.85,86.69 M97.61,87.51c0.08-0.04,0.2,0.01,0.22,0.07
		c-0.07,0.17-0.47,1.18-0.61,1.59c-0.03,0.08,0,0.1,0.03,0.1c0.08,0,0.21-0.08,0.47-0.31c0.03,0,0.06,0.02,0.06,0.06
		c-0.19,0.26-0.52,0.51-0.77,0.51c-0.1,0-0.13-0.09-0.13-0.12c0-0.03,0.01-0.07,0.05-0.18l0.15-0.41l-0.01-0.01
		c-0.32,0.4-0.79,0.72-1,0.72c-0.13,0-0.2-0.13-0.2-0.26c0-0.1,0.1-0.47,0.4-0.88c0.22-0.3,0.41-0.48,0.6-0.59
		c0.18-0.1,0.29-0.13,0.41-0.13c0.05,0,0.08,0.01,0.11,0.03c0.02,0.01,0.07,0.05,0.09,0.1L97.61,87.51z M96.82,88.02
		c-0.29,0.26-0.57,0.86-0.57,1.18c0,0.06,0.03,0.09,0.07,0.09c0.05,0,0.18-0.06,0.44-0.3c0.35-0.32,0.54-0.72,0.61-0.98
		c-0.03-0.09-0.11-0.16-0.23-0.16C97.03,87.85,96.96,87.9,96.82,88.02 M99.88,88.31c0.11-0.23,0.23-0.58-0.09-0.6
		c-0.35-0.02-0.81,0.43-1.17,0.94l-0.01-0.01l0.37-0.8c0.05-0.1,0.01-0.19-0.1-0.19c-0.34-0.02-0.6,0.16-0.73,0.38
		c-0.01,0.04,0.01,0.07,0.06,0.07c0.1-0.11,0.27-0.23,0.42-0.22c0.05,0,0.05,0.05,0.02,0.13c-0.02,0.07-0.6,1.36-0.61,1.4
		c-0.05,0.1,0.07,0.12,0.12,0.13c0.04,0,0.06-0.01,0.08-0.05c0.3-0.48,0.5-0.82,0.76-1.11c0.27-0.29,0.54-0.51,0.67-0.5
		c0.16,0.01-0.04,0.39-0.07,0.44l-0.53,1.16c-0.05,0.1,0.07,0.12,0.12,0.13c0.04,0,0.06-0.01,0.09-0.05
		c0.31-0.48,0.54-0.83,0.79-1.1c0.27-0.3,0.5-0.51,0.63-0.51c0.07,0.01,0.07,0.06,0.06,0.11c-0.01,0.09-0.08,0.25-0.12,0.33
		c-0.11,0.23-0.32,0.65-0.43,0.87c-0.11,0.22-0.13,0.25-0.13,0.29c-0.01,0.05,0.06,0.12,0.1,0.12c0.25,0.02,0.62-0.18,0.82-0.46
		c0-0.04-0.01-0.07-0.07-0.07c-0.14,0.15-0.37,0.28-0.45,0.28c-0.03,0-0.03-0.04-0.01-0.09c0.02-0.03,0.39-0.75,0.49-0.98
		c0.05-0.1,0.09-0.24,0.09-0.31c0.01-0.15-0.07-0.25-0.24-0.26c-0.3-0.02-0.67,0.28-1.15,0.95l-0.01-0.01L99.88,88.31 M95.46,194.95
		v0.42c-1.48-0.08-2.76-0.04-3.98,0v-0.42l0.97-0.1c0.25-0.03,0.3-0.16,0.33-0.37c0.08-0.37,0.09-3.38,0.04-4.83
		c0-0.25-0.07-0.25-0.11-0.26c-0.02,0-0.1,0.03-0.22,0.09c-0.67,0.29-1.09,0.49-1.27,0.58l-0.06-0.03
		c-0.04-0.21-0.04-0.37-0.11-0.64l0.01-0.03c1.07-0.3,2.15-0.68,3.15-1.06l0.11,0.08c-0.02,0.33-0.04,0.66-0.06,0.99
		c-0.02,0.39-0.07,3.06-0.03,4.59c0.03,0.74,0.03,0.79,0.17,0.87C94.59,194.92,95.14,194.9,95.46,194.95z M101.06,193.2
		c0,1.4-1.03,2.35-2.47,2.35c-1.3,0-2.06-0.82-2.06-1.85c0-0.61,0.25-1.12,0.74-1.44c0.03-0.02,0.19-0.1,0.48-0.26
		c-0.47-0.28-1.03-0.64-1.03-1.61c0-0.82,0.54-1.96,2.23-1.96c1.23,0,1.8,0.74,1.8,1.51c0,0.68-0.41,1.14-0.98,1.49
		C100.64,191.78,101.06,192.25,101.06,193.2z M97.77,189.91c0,0.69,0.68,0.99,1.48,1.32c0.39-0.26,0.62-0.69,0.62-1.16
		c0-0.65-0.41-1.1-1.11-1.1C98.15,188.97,97.77,189.39,97.77,189.91z M99.91,193.81c0-0.95-0.63-1.14-1.73-1.62
		c-0.44,0.34-0.73,0.79-0.73,1.38c0,0.86,0.59,1.42,1.31,1.42C99.42,195,99.91,194.5,99.91,193.81z M107.65,188.47l-0.07,0.06
		c0.04,0.81,0.04,1.62,0,2.43l0.43,0.02c0.06-0.52,0.11-0.83,0.14-0.95c0.02-0.12,0.08-0.19,0.19-0.23
		c0.08-0.03,0.97-0.05,1.45-0.05h1.3l0.04,0.09c-0.97,1.84-1.89,3.25-3.12,5.42l0.05,0.11c0.39-0.03,0.78-0.03,1.17,0
		c0.79-2.23,1.89-4.33,3.02-6.4v-0.47C110.72,188.52,109.19,188.53,107.65,188.47z M102.18,188.47l-0.07,0.06
		c0.04,0.81,0.04,1.62,0,2.43l0.43,0.02c0.06-0.52,0.11-0.83,0.14-0.95c0.02-0.12,0.08-0.19,0.19-0.23
		c0.08-0.03,0.97-0.05,1.45-0.05h1.3l0.04,0.09c-0.97,1.84-1.89,3.25-3.12,5.42l0.05,0.11c0.39-0.03,0.78-0.03,1.17,0
		c0.79-2.23,1.89-4.33,3.02-6.4v-0.47C105.25,188.52,103.72,188.53,102.18,188.47z"/>
	<path fill="#FFFFFF" d="M192.31,146.88l-0.82-15.05c0,0,3.47-0.82,3.83-1.73c0,0,0.36-1.73-3.19-1.92c0,0-1.27-1.36-0.73-4.36
		c-0.01,0.08-0.13,0.33-1-0.38l-3.92,0.47l-0.01-0.84l-2.74,0.73c-2.01,0.82-11.77-0.64-11.77-0.64c-6.57-0.73-7.66,1.46-7.66,1.46
		l0.02,1.58l-1.38,0.11l-0.01-1.42c0,0,0.09-2.01-6.48-1.46c0,0-14.23,1.82-14.77,1.19l-2.37-0.18l0,0.28l-3.56,0.18l-0.27,3.92
		c0,0-2.92,0-3.28,1.73c0,0-0.45,2.28,3.19,2.37l0.18,13.77c0,0-3.1,0.55-3.1,2.64c0,0-1.28,1.91,2.92,2.37l0.36,5.11l25.17,0.27
		c0,0-0.18,1.28,1.37,1.28l3.74-0.09c0,0,1-0.27,0.46-0.73l-0.18-0.82l24.99-0.27c0,0,0.73-0.82,0.55-1.64l0.18-4.83
		c0,0,3.28-0.36,3.37-1.46C195.41,148.52,195.23,147.06,192.31,146.88z"/>
	<path fill="none" stroke="#000000" stroke-width="0.3646" d="M163.12,151.43c-3.38-2.01-13.59,0.09-13.59,0.09
		c-10.49,1.37-9.94-0.09-9.94-0.09l-0.27-27l2.37,0.18c0.55,0.64,14.77-1.19,14.77-1.19c6.57-0.55,6.48,1.46,6.48,1.46
		L163.12,151.43z M164.67,151.53c4.29-1.55,8.21-1.18,8.21-1.18c1.64-0.09,6.11,0.36,6.11,0.36c3.56,0.09,7.66-1.19,7.66-1.19
		l-0.18-26.45l-2.74,0.73c-2.01,0.82-11.77-0.64-11.77-0.64c-6.57-0.73-7.66,1.46-7.66,1.46L164.67,151.53z"/>
	<path d="M154.86,129.12c0.69-0.61,0.95-1.4,0.82-2.35l-0.23-0.35c-0.9-0.06-2.03,0.06-2.94,0.35c-0.02,0.33,0.36,0.19,0.47,0.47
		c-0.04,1.76,0.27,3.59,0.06,5.28c1.8,0.45,0.26-1.95,1-2.7c0.76,0.68,0.72,1.8,1.53,2.35l0.35-0.35
		C155.56,130.92,155.34,129.96,154.86,129.12z M154.03,126.89c0.38-0.06,0.84,0.16,0.82,0.59c0.22,0.72-0.42,1.07-0.82,1.53
		C153.86,128.37,153.86,127.52,154.03,126.89z M160.96,126.3l-0.35,0.12c-0.83,1.77-1.05,3.8-1.76,5.63
		c1.14,0.3,0.68-1.41,1.29-1.99c0.39-0.06,0.7,0.06,0.94,0.35c0.15,0.86,0.14,1.8,0.47,2.58c0.2-0.04,0.56,0.09,0.59-0.12
		C161.57,130.76,161.35,128.5,160.96,126.3z M160.73,129.35h-0.23c-0.24-0.23,0.03-0.56,0.12-0.82
		C160.64,128.71,161.04,129.09,160.73,129.35z M150.28,128.18c-0.28-0.4,0-1.23-0.59-1.29c-1.19,1.83-1.51,4.23-2,6.46
		c1.05-0.13,0.79-1.41,1.17-2.11l0.23-0.47c1.67-0.88,0.89,1.68,1.76,2.35c0.23-0.12,0.47-0.23,0.7-0.35
		C151.1,131.25,150.61,129.75,150.28,128.18z M149.69,130.06h-0.47c0.21-0.27-0.07-0.75,0.35-0.94
		C149.61,129.44,150.01,129.74,149.69,130.06z M143.35,127.95c0.39,1.06,0.61,2.18,1.18,3.17c0.66-1.11,0.66-2.51,1.29-3.64
		l0.59-0.12c0.12,1.99,0.23,3.99,0.35,5.99c-0.19,0.06-0.36,0.15-0.59,0.12c-0.15-1.09-0.14-2.27-0.47-3.29
		c-0.73,0.78-0.63,2.34-1.29,3.05c-0.61-0.94-0.68-2.11-1.29-3.05c-0.29,1.02-0.41,2.11-0.35,3.29c-0.18,0.02-0.27-0.2-0.47-0.12
		c-0.09-1.93,0.15-3.99,0.23-5.99C142.95,127.21,143.35,127.57,143.35,127.95 M157.32,132.05v-5.99l0.7,0.23l-0.12,5.75H157.32z
		 M185.26,126.42l0.23-0.23l0.35,0.35c-0.26,1.18,0.02,2.58-0.23,3.76l0.12,0.12c-0.38,0.87,0.32,2.17-0.59,2.82
		c-0.67-1.33-1.21-2.71-2-3.99l-0.23,0.23v3.99l-0.59,0.47c-0.14-2.19,0.26-4.46,0.12-6.81l0.47-0.47c0.76,1.07,1.3,2.44,1.99,3.64
		L185.26,126.42z M170.23,126.3h-0.47c-0.96,2.03-1.36,4.3-2,6.46c0.22,0.03,0.4-0.06,0.59-0.12c0.27-0.79,0.38-1.64,0.82-2.35
		c1.86-0.5,1.26,1.88,1.88,2.82l0.94-0.12C171.41,130.76,170.82,128.53,170.23,126.3z M170,129.59c-0.08-0.21-0.32-0.08-0.47-0.12
		c-0.03-0.36,0.02-0.68,0.24-0.94C170.2,128.64,169.92,129.24,170,129.59z M167.65,126.77c-0.03,0.31-0.38,0.68-0.59,0.7
		c-0.2-0.12-0.29-0.48-0.59-0.35l-0.35,0.35c0.24,0.15,0.06,0.41,0,0.59c0.72,0.72,1.87,1.16,1.41,2.47
		c-0.18,0.95-0.52,1.83-1.17,2.58c-0.32-0.08-0.78,0.2-0.94-0.23c-0.05-0.46,0.32-0.75,0.35-1.17h0.24
		c-0.05,0.16,0.15,0.23,0.23,0.35c0.52,0.24,0.47-0.39,0.7-0.59c0.34-1.31-1.93-1.61-1.53-3.17c0.24-0.69,0.42-1.5,1.18-1.88
		C167.04,126.32,167.33,126.58,167.65,126.77 M175.51,127.59c-0.55-1.04-1.85-0.91-2.82-0.94c-0.3,0.24,0.05,0.52,0.24,0.7v5.99
		c0.27-0.03,0.62,0.09,0.82-0.12l0.12-2.82c0.7-0.01,1.29-0.34,1.76-0.94C175.79,128.78,175.63,128.25,175.51,127.59z
		 M173.87,130.06v-2.35c0.59-0.08,0.34,0.6,0.7,0.82C174.8,129.24,174.24,129.71,173.87,130.06z M177.69,128.71l-0.06,4.87
		c-0.26,0.21-0.57,0.27-0.94,0.23c0.08-2.23-0.2-4.6,0.23-6.69C178.31,126.71,177.63,128.06,177.69,128.71 M178.92,133.81l0.06-6.46
		c0.83-0.15,1.89-0.18,2.76-0.23c-0.15,0.23-0.19,0.52-0.47,0.7c-0.42,0.06-0.95-0.16-1.17,0.35c0.14,0.63-0.31,1.3,0.12,1.76
		c0.38-0.01,0.59-0.12,1.06-0.23c0.32,0.32-0.08,0.62-0.12,0.94c-0.21,0.03-0.78-0.1-1.06,0.12c-0.43,0.64-0.15,1.56-0.23,2.35
		c0.51,0.24,1.11,0.06,1.64,0c0.05,0.54-0.35,0.76-0.82,0.82L178.92,133.81z M154.27,143.21c-0.48-1.31-2.1-0.83-3.29-0.94
		c-0.08,0.42,0.12,0.42,0.35,0.7c-0.03,1.61,0.09,3.29-0.12,4.81h-0.12v0.23c1.06-0.1,2.35-0.6,3.05-1.64
		C154.57,145.45,154.87,144.14,154.27,143.21z M152.39,147.2h-0.23v-4.46c0.9,0.14,1.24,1.13,1.41,1.88
		C153.67,145.68,153.21,146.61,152.39,147.2z M149.93,142.62c-0.01,0.92-1.05,0.38-1.41,0.94c-0.09,0.66,0.15,1.17,0.24,1.76
		c0.39,0.09,0.62-0.15,0.94-0.23c0.19,0.16,0.14,0.53,0,0.7c-1.33-0.41-1.2,1.04-1.18,1.88c0.44,0.56,0.94-0.09,1.53,0.12v0.35
		l-2.11,0.35l-0.24-0.23v-5.4C148.44,142.77,149.26,142.52,149.93,142.62 M146.52,143.44c-0.25,0.19,0.01,0.57-0.35,0.7
		c-0.32-0.2-0.45-0.56-0.94-0.59c-0.29,0.25-0.3,0.75-0.12,1.06c0.46,0.8,1.47,0.75,1.41,1.76c-0.21,0.91,0.08,1.94-1.06,2.35
		c-0.36,0.04-0.68-0.02-0.94-0.23c-0.07-0.35,0.08-0.61,0.35-0.82c0.22,0.28,0.49,0.43,0.82,0.47c0.52-0.22,0.29-0.75,0.35-1.17
		c-0.41-0.72-1.24-0.63-1.52-1.41c-0.32-0.7,0.08-1.41,0.12-2.11C144.89,142.65,146.52,142.34,146.52,143.44 M157.8,141.68
		c-0.01,0.92-1.05,0.38-1.41,0.94c-0.09,0.66,0.15,1.17,0.24,1.76c0.39,0.1,0.62-0.15,0.94-0.23c0.19,0.16,0.14,0.53,0,0.7
		c-1.33-0.41-1.2,1.04-1.18,1.88c0.44,0.56,0.94-0.09,1.53,0.12v0.35l-2.11,0.35l-0.23-0.24v-5.4
		C156.31,141.83,157.14,141.59,157.8,141.68 M160.84,142.38c0.11,0.33-0.16,0.51-0.35,0.7c-0.4,0.01-0.66-1.07-1.06-0.35
		c-0.25,1.71,2.27,2.12,1.29,3.99c-0.27,0.32-0.38,0.8-0.82,0.94c-0.46,0.11-0.78-0.13-1.06-0.47l0.35-0.7
		c0.4-0.01,0.66,1.07,1.06,0.35c0.45-1.3-1.23-1.73-1.29-2.82c-0.06-0.85,0.02-1.64,0.59-2.23
		C160.09,141.73,160.67,141.83,160.84,142.38 M167.83,142.65c-0.32-0.04-0.88,0.06-1.12-0.15c0.01-1.33,1.8-0.38,2.58-0.82
		l0.12,0.12c-0.06,0.5-0.27,0.67-0.82,0.59v4.99l-0.7,0.18L167.83,142.65z M170.94,147.31h-0.7l-0.12-5.52h0.7L170.94,147.31z
		 M175.54,146.73c-0.94-1.45-0.86-3.39-1.91-4.69c-1,1.65-1.23,3.63-2.23,5.28c1.27,0.72,0.76-1.05,1.53-1.41
		c2.1-0.97,1.22,2.25,2.93,1.99C175.98,147.43,175.66,147.23,175.54,146.73z M173.87,145.32c-0.21-0.19-0.82-0.06-0.59-0.59
		l0.35-0.47C173.68,144.63,173.99,144.88,173.87,145.32z M176.81,142.74c0.86,0.03,1.8-0.09,2.58,0.12
		c0.14,1.02-1.01,0.42-1.53,0.59c-0.14,0.55-0.27,1.4,0.12,1.88h1.29c0.02,0.18-0.2,0.27-0.12,0.47c-0.54,0.27-1.61-0.21-1.44,1.06
		c-0.2,1.38,1.12,0.54,1.67,0.94l-0.12,0.35h-2.47V142.74z M185.02,142.34c-0.29,0.09-0.55,0.41-0.72,0.66
		c-0.19,0.46-0.38,0.93-0.3,1.5c0.87,0.11,1.81-0.2,2.28-0.96v3.12c-0.46-0.86-1.4-0.83-2.22-0.96c-0.27,0.31,0,0.68,0,1.02
		c0.17,0.52,0.55,0.89,0.96,1.2v0.06h-3.12v-0.06c0.29-0.05,0.5-0.45,0.66-0.72c0.15-0.46,0.48-1,0.18-1.5
		c-0.9-0.01-1.76,0.36-2.23,1.14v-3.24c0.49,0.77,1.33,0.96,2.16,1.02c0.34-0.62-0.06-1.23-0.36-1.74l-0.66-0.54H185.02z
		 M139.48,152.6c4.51,1.96,8.13,1.1,12.79,0.12c2.32-0.55,5.07-0.39,7.4-0.59c1.03,0.29,2.42,0.21,2.82,1.53
		c-5.99-1.01-11.88,0.32-17.73,0.7c-2.3-0.65-5.07-0.41-6.69-2.47C138.61,151.95,139.19,152.18,139.48,152.6 M139.32,124.44
		l-2.83,1.28l0.18,30.01l24.44-0.09c0,0-1.73-1.37-3.83-1.19c0,0-9.48,0.27-10.22,0.64c0,0-6.02,0.27-6.2-0.36
		c0,0-3.1-0.55-3.1-0.82l-0.27-27.91l1.82-0.64V124.44z M187.48,152.62c0,0-4.74,1.73-8.85,1.19c0,0-5.74-0.73-6.75-0.55
		c0,0-6.57-0.27-7.11-0.09c0,0,4.65-2.19,10.22-1.46c0,0,6.29,0.82,7.75,0.64c0,0,4.1-0.09,4.93-0.55
		C187.66,151.8,188.3,152.16,187.48,152.62z M181.36,153.07c-3.17-0.2-6.2-1.09-9.51-0.59c0.13,0,0.28-0.02,0.35,0.12
		c0.25,0.04,0.86-0.09,1.18,0.12C176.04,152.83,178.62,153.48,181.36,153.07z M190.3,155.72c0,0-0.64,0.46-0.91,0.18h-22.25
		c0,0,1.19-1.28,3.28-1.09c0,0,6.66-1,8.76,0c0,0,6.11,0.45,7.02,0c0,0,2.55-0.64,2.83-1.92l-0.18-29.28l1.09-0.09L190.3,155.72z
		 M172.11,155.3h-0.47v0.12h0.47V155.3z M174.46,155.3h-1.17v0.12h1.17V155.3z M189.48,153.91l-1.55,1.26l1.55-0.09L189.48,153.91z
		 M164.6,151.63l-0.02-26.28l-0.34-0.6l-1.29,0.23l0.24,26.65l0.48,1.99h1L164.6,151.63z"/>
	<path fill="#FFFFFF" d="M46.01,206.07l0.52-0.61c0.46,0.39,0.78,0.6,0.96,0.63c0.09,0.01,0.21-0.02,0.34-0.1
		c0.58-0.41,3.34-3.59,4.7-5.21c0.38-0.45,0.8-0.88,1.27-1.3c2.14-1.96,4.74-1.06,6.69,0.6c1.72,1.46,3.51,3.88,2.01,6.24
		c-0.13,0.2-0.52,0.69-1.19,1.47c-1.47,1.71-3.72,4.33-4.36,5.2c-0.29,0.42-0.38,0.53-0.29,0.9l0.88,0.92l-0.52,0.61
		c-1.52-1.38-3.08-2.71-4.68-3.98l0.52-0.62c0.53,0.45,0.91,0.69,1.14,0.72c0.11,0.02,0.23-0.03,0.37-0.13
		c0.62-0.44,2.77-3.04,4.01-4.53c0.77-0.9,1.23-1.47,1.39-1.7c1.04-1.44,0.77-2.92-0.93-4.36c-0.6-0.51-2.02-1.58-3.59-0.87
		c-0.49,0.23-1.19,0.87-2.08,1.92c-3.13,3.7-3.99,4.65-4.16,5.12c-0.03,0.11-0.03,0.22,0.02,0.32c0.09,0.22,0.41,0.58,0.94,1.06
		L49.45,209C47.69,207.39,48.19,207.82,46.01,206.07z M15.77,154.24l0.81-0.24c-0.08-0.28-0.15-0.63-0.24-1.05
		c-0.07-0.34-0.07-0.4,0.03-0.52c0.07-0.08,0.26-0.15,0.45-0.17c0.89-0.06,5.64,0.42,9.35,0.79c-4.33,3.46-4.04,3.2-6.04,4.81
		c-1.49,1.19-1.63,1.21-1.85,1.12c-0.26-0.12-0.48-0.84-0.64-1.36l-0.81,0.24c1.43,4.58,0.83,2.53,1.78,6.08l0.81-0.24
		c-0.16-0.59-0.22-0.99-0.17-1.21c0.03-0.14,0.25-0.41,0.66-0.78c1-0.92,7.22-5.95,9.93-8.08l-0.41-1.42
		c-1.92-0.09-7.48-0.73-11.2-1.17c-1.44-0.16-2.25-0.31-2.43-0.44c-0.1-0.08-0.27-0.41-0.51-1l-0.81,0.24
		C15.37,152.62,14.92,151.12,15.77,154.24z M25.78,130.83c-0.06-0.76-0.14-1.35-0.22-1.76l-0.14-0.12
		c-0.83,0.07-1.89,0.09-3.18,0.05l0.07,0.8c1.34,0.09,1.87,0.18,1.98,0.33c0.36,0.49,0.63,3.9,0.62,4.87
		c-0.72,0.11-2.27,0.21-5.29,0.48c-0.18-1.08-0.26-2.17-0.23-3.27c0.02-0.2,0.09-0.35,0.21-0.44c0.17-0.12,0.62-0.2,1.37-0.26
		l-0.07-0.83c-2.59,0.27-1.63,0.18-4.26,0.36l0.07,0.78c0.79-0.04,1.33-0.03,1.46,0.16c0.15,0.19,0.38,3.07,0.36,3.59
		c-1.59,0.13-3.26,0.32-4.78,0.27c-0.34-1.86-0.33-4.17-0.18-4.44c0.12-0.16,0.33-0.21,1.58-0.34l-0.06-0.76
		c-1.6,0.03-1.09,0.04-2.81-0.05l-0.12,0.08c-0.06,0.33-0.02,0.47,0.05,1.74c0.32,2.81,0.58,5.62,0.73,8.45l0.82-0.07
		c-0.02-0.76-0.01-1.23,0.06-1.41c0.08-0.16,0.11-0.25,1.46-0.41c1.49-0.16,7.45-0.76,10.01-0.7c0.21,0.23,0.43,0.53,0.64,0.9
		l0.52-0.05C26.18,136.15,26.12,136.02,25.78,130.83z M218.52,151.93c-0.18,0.74-0.3,1.32-0.35,1.74l0.09,0.15
		c0.81,0.2,1.82,0.51,3.03,0.95l0.19-0.78c-1.25-0.51-1.72-0.76-1.77-0.94c-0.18-0.58,0.63-3.9,0.95-4.81
		c0.72,0.12,2.22,0.52,5.17,1.22c-0.17,1.08-0.44,2.14-0.82,3.17c-0.08,0.19-0.19,0.3-0.33,0.35c-0.2,0.06-0.66,0-1.39-0.19
		l-0.2,0.81c2.55,0.57,1.6,0.34,4.15,1l0.18-0.77c-0.76-0.21-1.27-0.4-1.33-0.61c-0.08-0.23,0.61-3.03,0.79-3.52
		c1.55,0.37,3.2,0.73,4.62,1.25c-0.27,1.87-1.01,4.06-1.23,4.27c-0.16,0.12-0.38,0.09-1.61-0.18l-0.18,0.74
		c1.53,0.48,1.05,0.31,2.66,0.93l0.14-0.04c0.17-0.3,0.17-0.44,0.5-1.67c0.58-2.77,1.22-5.52,1.97-8.25l-0.8-0.19
		c-0.22,0.73-0.38,1.17-0.5,1.32c-0.13,0.13-0.18,0.2-1.51-0.08c-1.47-0.32-7.3-1.63-9.71-2.5c-0.13-0.28-0.24-0.64-0.32-1.06
		l-0.51-0.12C219.82,146.75,219.83,146.89,218.52,151.93z M155.46,32.52c0.73,0.22,1.3,0.37,1.71,0.45l0.16-0.08
		c0.24-0.79,0.62-1.79,1.13-2.97l-0.76-0.23c-0.58,1.21-0.86,1.67-1.04,1.72c-0.59,0.15-3.86-0.86-4.75-1.23
		c0.16-0.71,0.65-2.19,1.52-5.09c1.07,0.23,2.11,0.56,3.12,1c0.18,0.09,0.29,0.21,0.33,0.35c0.05,0.2-0.04,0.66-0.27,1.37l0.8,0.24
		c0.71-2.51,0.43-1.58,1.25-4.09l-0.75-0.23c-0.25,0.75-0.47,1.25-0.69,1.3c-0.23,0.07-2.99-0.78-3.47-1
		c0.46-1.52,0.92-3.15,1.52-4.54c1.85,0.38,3.99,1.24,4.18,1.48c0.11,0.17,0.07,0.39-0.27,1.6l0.73,0.22
		c0.57-1.5,0.37-1.03,1.09-2.6l-0.03-0.14c-0.28-0.18-0.43-0.19-1.64-0.6c-2.73-0.74-5.43-1.55-8.11-2.45l-0.24,0.79
		c0.71,0.26,1.14,0.45,1.29,0.58c0.12,0.14,0.19,0.19-0.16,1.51c-0.41,1.45-2.06,7.2-3.06,9.56c-0.29,0.11-0.65,0.2-1.08,0.26
		l-0.15,0.5C150.37,30.92,150.51,30.91,155.46,32.52z M23.76,173.23c-0.08-0.1-0.28-0.44-0.59-1.01l-0.77,0.38
		c0.98,1.8,2.09,4.02,2.76,5.53l0.77-0.38c-0.29-0.65-0.45-1.02-0.48-1.14c-0.04-0.2-0.02-0.3,0.13-0.43
		c0.48-0.48,8.72-4.59,10-4.98c0.18-0.04,0.31,0.09,0.4,0.21c0.06,0.08,0.26,0.42,0.58,1.02l0.77-0.38
		c-0.99-1.81-1.91-3.65-2.75-5.53l-0.77,0.38c0.27,0.57,0.42,0.93,0.46,1.06c0.05,0.22,0.06,0.37-0.1,0.52
		c-0.17,0.31-9.7,5.05-10,4.96C24,173.47,23.89,173.39,23.76,173.23z M25.67,74.02c0.03-0.12,0.18-0.48,0.46-1.08l-0.77-0.38
		c-0.85,1.87-1.96,4.08-2.77,5.52l0.77,0.38c0.34-0.62,0.55-0.97,0.62-1.06c0.14-0.16,0.23-0.2,0.42-0.15
		c0.67,0.1,8.9,4.24,9.98,5.03c0.14,0.12,0.11,0.3,0.07,0.45c-0.03,0.1-0.18,0.46-0.46,1.07l0.77,0.38
		c0.85-1.88,1.78-3.71,2.77-5.52l-0.77-0.38c-0.3,0.56-0.49,0.9-0.57,1c-0.14,0.17-0.26,0.27-0.48,0.23
		c-0.35,0.05-9.85-4.75-9.96-5.04C25.62,74.36,25.62,74.22,25.67,74.02z M222.74,75.35c0.08,0.1,0.29,0.43,0.61,1l0.76-0.4
		c-1.03-1.78-2.19-3.96-2.9-5.46l-0.76,0.4c0.31,0.64,0.48,1.01,0.51,1.13c0.05,0.2,0.03,0.3-0.12,0.43
		c-0.47,0.49-8.61,4.81-9.87,5.24c-0.18,0.05-0.31-0.08-0.41-0.2c-0.07-0.08-0.27-0.42-0.61-1l-0.76,0.4c1.03,1.78,2,3.6,2.89,5.46
		l0.76-0.4c-0.29-0.57-0.45-0.92-0.48-1.05c-0.06-0.22-0.07-0.37,0.09-0.53c0.16-0.32,9.57-5.29,9.87-5.21
		C222.48,75.12,222.6,75.2,222.74,75.35z M45.9,64.48c-0.48,0.61-0.8,0.95-0.95,1.03c-0.15,0.07-0.31,0.08-0.47,0.01
		c-0.43-0.06-8.93-6.45-8.93-6.45c0.29-0.4,2.02-2.79,2.26-2.83c0.23-0.03,1.39,0.72,1.66,0.9l0.48-0.65
		c-1.33-1.02-1.72-1.25-2.47-1.99l-0.14,0.02c-0.15,0.27-0.31,0.52-0.48,0.77c-0.24,0.41-5.73,7.87-6.16,8.41
		c-0.21,0.27-0.42,0.52-0.63,0.74l0.03,0.13c0.93,0.51,1.46,0.92,2.64,1.76l0.48-0.65c-0.2-0.13-1.34-1.09-1.35-1.32
		c-0.02-0.28,1.9-2.83,2.02-3c0.09,0.05,8.4,5.99,8.83,6.57c0.12,0.15,0.16,0.31,0.14,0.47c-0.02,0.16-0.25,0.57-0.69,1.21
		l0.64,0.47c1.16-1.78,2.41-3.49,3.76-5.13L45.9,64.48z M218.81,97.37c-0.22-0.75-0.31-1.2-0.28-1.37c0.03-0.17,0.12-0.3,0.26-0.39
		c0.3-0.31,10.43-3.55,10.43-3.55c0.16,0.47,1.1,3.27,1,3.48c-0.11,0.21-1.39,0.72-1.69,0.83l0.25,0.77
		c1.6-0.49,2.01-0.68,3.05-0.86l0.06-0.12c-0.13-0.28-0.24-0.56-0.35-0.84c-0.2-0.43-3.09-9.24-3.28-9.9
		c-0.1-0.33-0.18-0.65-0.24-0.94l-0.12-0.05c-0.95,0.46-1.6,0.65-2.96,1.14l0.25,0.77c0.22-0.08,1.67-0.46,1.85-0.34
		c0.24,0.14,1.2,3.19,1.27,3.38c-0.09,0.04-9.75,3.38-10.47,3.4c-0.19,0.01-0.34-0.04-0.46-0.16c-0.12-0.11-0.31-0.53-0.58-1.27
		l-0.76,0.25c0.78,1.98,1.44,3.99,2,6.04L218.81,97.37z M172.81,39.46c-0.67-0.39-1.06-0.65-1.15-0.79
		c-0.09-0.14-0.12-0.3-0.08-0.47c0-0.43,5.07-9.79,5.07-9.79c0.44,0.23,3.05,1.6,3.13,1.82c0.07,0.23-0.5,1.48-0.65,1.77l0.71,0.38
		c0.81-1.46,0.98-1.88,1.61-2.74l-0.04-0.13c-0.28-0.11-0.56-0.23-0.83-0.36c-0.44-0.18-8.62-4.52-9.21-4.87
		c-0.3-0.17-0.57-0.34-0.83-0.52l-0.12,0.04c-0.37,0.99-0.7,1.58-1.35,2.87l0.71,0.38c0.1-0.21,0.88-1.48,1.1-1.53
		c0.27-0.06,3.08,1.47,3.26,1.56c-0.04,0.09-4.69,9.2-5.2,9.71c-0.13,0.14-0.28,0.21-0.44,0.21c-0.16,0-0.6-0.17-1.3-0.51l-0.37,0.7
		c1.93,0.89,3.8,1.88,5.62,2.97L172.81,39.46z M59.47,50.21c-0.82,0.73-1.05,0.92-1.33,0.88c-0.1-0.02-0.29-0.15-0.57-0.4
		c-0.35-0.27-1.61-1.65-2.38-2.49c-0.38-0.43-0.53-0.58-0.74-1.3c-0.26-1-0.99-4.88-1.29-7.63l-0.3-0.32l-1.12,1.03
		c0.31,1.11,1.2,4.94,1.63,7.29c-1.01-0.41-4.01-1.55-5.53-1.89c-1.06-0.24-1.29-0.27-2.24-0.05c-0.58,0.9-0.7,1.05-1.86,2.62
		l0.49,0.54c0.36-0.33,0.58-0.51,0.67-0.54c0.15-0.04,0.46-0.04,0.94,0c1.61,0.13,4.3,0.93,6.27,1.59c0.5,0.18,0.8,0.32,0.9,0.43
		c1.67,1.81,1.69,1.83,2.49,2.78c0.36,0.44,0.39,0.54,0.23,0.78c-0.07,0.11-0.37,0.43-0.9,0.94l0.58,0.63
		c1.49-1.49,3.05-2.9,4.64-4.28L59.47,50.21z M187.34,201.59c0.84-0.72,1.07-0.91,1.34-0.86c0.1,0.02,0.28,0.16,0.57,0.41
		c0.35,0.28,1.58,1.67,2.34,2.52c0.38,0.44,0.52,0.59,0.72,1.31c0.25,1,0.91,4.89,1.17,7.64l0.29,0.33l1.14-1.02
		c-0.29-1.12-1.12-4.95-1.51-7.31c1.01,0.42,3.99,1.61,5.5,1.97c1.06,0.26,1.28,0.29,2.24,0.08c0.59-0.89,0.72-1.04,1.9-2.59
		l-0.49-0.54c-0.36,0.32-0.59,0.5-0.68,0.53c-0.15,0.04-0.46,0.03-0.94-0.01c-1.61-0.15-4.29-0.99-6.24-1.68
		c-0.5-0.18-0.79-0.33-0.89-0.44c-1.64-1.83-1.66-1.85-2.45-2.82c-0.35-0.44-0.38-0.55-0.22-0.79c0.07-0.11,0.38-0.42,0.91-0.93
		l-0.57-0.64c-1.51,1.46-3.09,2.86-4.71,4.21L187.34,201.59z M83.76,36.27c-4.34,1.94-7.69,0.3-9.35-3.46
		c-1.97-4.46-0.03-7.87,3.94-9.66c3.87-1.76,7.51-0.92,9.31,3.14C89.66,30.9,87.88,34.44,83.76,36.27z M85.13,27.96
		c-1.07-2.36-3.28-5.22-6.54-3.69c-2.86,1.28-2.95,3.97-1.68,6.8c1.32,2.91,3.52,5.5,6.76,4.05C86.69,33.76,86.36,30.66,85.13,27.96
		z M200.4,64.59c-2.95-3.74-2.19-7.39,1.04-9.92c3.83-3.02,7.62-1.97,10.32,1.44c2.66,3.32,2.74,7.06-0.73,9.81
		C207.07,68.99,203.2,68.13,200.4,64.59z M208.79,63.86c2.02-1.62,4.24-4.47,1.96-7.25c-1.95-2.45-4.57-1.88-7,0.05
		c-2.49,2-4.46,4.77-2.25,7.56C203.56,66.81,206.48,65.72,208.79,63.86z M140.77,20.85c-0.12,2.38-1.98,7.46-9.14,6.81l-2.87-0.32
		l-2.94-0.21l0.04-0.46c0.33-0.17,0.43-0.17,1-0.5c0.35-2.06,0.7-6.48,0.92-9.55c0.08-1.25,0.09-1.76-0.03-1.9
		c-0.12-0.14-0.39-0.19-1.44-0.42l0.07-0.78c5.23,0.6,5.22,0.46,7.84,0.69c1.88,0.16,5.42,0.59,6.33,3.92
		C140.79,18.98,140.86,19.88,140.77,20.85z M137.68,18.89c-0.26-1.4-1-2.57-2.27-3.16c-1.15-0.53-3.38-0.72-4.59-0.64
		c-0.27,1.58-1.05,9.9-1.01,11.22c1.21,0.3,2.72,0.46,4.02,0.23c2.65-0.47,3.73-3.16,3.94-5.48
		C137.84,20.31,137.81,19.59,137.68,18.89z M196.74,40.99c-0.3-0.43-0.84-0.97-1.63-1.61c-1.85-1.5-1.93-1.35-5.56-4.5l-0.51,0.62
		c0.59,0.55,0.92,0.9,0.99,1.06c0.02,0.07,0.03,0.14,0.01,0.22c-0.12,0.54-5.68,7.27-7.04,8.59c-0.16,0.14-0.24,0.21-0.43,0.13
		c-0.13-0.05-0.49-0.3-1.08-0.75l-0.54,0.66c1.5,1.13,3.24,2.55,4.78,3.91l0.54-0.66c-0.82-0.7-1.07-0.91-1-1.21
		c0.03-0.12,0.15-0.32,0.37-0.62c1.3-1.81,5.82-7.26,6.74-8.21c0.77,0.44,1.57,1.19,1.8,1.56c0.53,0.9,0.35,1.95-0.31,2.73
		c-0.64,0.79-1.74,1.35-2.73,1.11c-0.42-0.11-0.93-0.41-1.51-0.93l-0.28,0.18c0.06,0.23,0.08,0.53,0.06,0.88
		c-0.03,1.15-0.54,4.51-0.85,6.74c-0.05,0.25-0.11,0.45-0.17,0.58c1.04,0.76,1.94,1.54,2.88,2.35l0.51-0.62
		c-0.36-0.32-0.49-0.43-0.52-0.84c-0.01-0.16,0-0.64,0.03-1.45c0.18-1.92,0.5-5.31,0.61-5.79c1.66,0.58,3.43,0.5,4.63-0.96
		C197.26,43.3,197.41,41.96,196.74,40.99z M223.8,175.26c0.34-0.4,0.73-1.06,1.16-1.98c1-2.16,0.83-2.2,2.99-6.5l-0.72-0.34
		c-0.39,0.71-0.65,1.11-0.78,1.22c-0.06,0.04-0.13,0.06-0.21,0.06c-0.55,0.02-8.43-3.72-10.05-4.72c-0.18-0.12-0.26-0.18-0.23-0.38
		c0.02-0.14,0.17-0.55,0.46-1.23l-0.78-0.36c-0.72,1.74-1.67,3.77-2.61,5.6l0.78,0.36c0.48-0.97,0.62-1.26,0.92-1.27
		c0.12,0,0.35,0.07,0.69,0.2c2.07,0.82,8.46,3.86,9.61,4.52c-0.24,0.85-0.76,1.82-1.07,2.13c-0.74,0.74-1.8,0.82-2.72,0.37
		c-0.92-0.42-1.74-1.35-1.75-2.38c0-0.44,0.17-1,0.53-1.7l-0.25-0.23c-0.21,0.12-0.49,0.21-0.84,0.27c-1.13,0.25-4.5,0.58-6.73,0.83
		c-0.26,0.01-0.46,0.01-0.6-0.02c-0.48,1.2-1.02,2.26-1.57,3.37l0.73,0.34c0.22-0.43,0.3-0.58,0.68-0.71
		c0.15-0.05,0.62-0.16,1.42-0.33c1.9-0.3,5.27-0.82,5.76-0.83c-0.15,1.75,0.36,3.45,2.06,4.25
		C221.69,176.33,223.03,176.15,223.8,175.26z M13.25,110.41c-0.2,0.49-0.35,1.24-0.46,2.25c-0.25,2.37-0.08,2.35-0.73,7.11
		l0.79,0.09c0.14-0.79,0.25-1.26,0.35-1.41c0.05-0.06,0.11-0.1,0.18-0.13c0.52-0.2,9.18,0.79,11.04,1.21
		c0.21,0.06,0.31,0.09,0.34,0.29c0.03,0.14,0.02,0.58-0.03,1.32l0.85,0.09c0.12-1.88,0.36-4.11,0.66-6.14L25.38,115
		c-0.14,1.07-0.18,1.39-0.46,1.5c-0.11,0.04-0.35,0.05-0.72,0.03c-2.22-0.1-9.25-0.91-10.55-1.17c-0.05-0.89,0.13-1.97,0.32-2.36
		c0.46-0.94,1.44-1.36,2.46-1.23c1.01,0.1,2.08,0.72,2.43,1.68c0.14,0.41,0.16,1,0.05,1.78l0.31,0.14c0.16-0.18,0.4-0.35,0.7-0.53
		c0.98-0.61,4.07-2.01,6.1-2.96c0.24-0.1,0.43-0.15,0.58-0.17c0.07-1.29,0.23-2.47,0.4-3.69l-0.8-0.09
		c-0.07,0.48-0.09,0.64-0.42,0.89c-0.13,0.1-0.54,0.35-1.24,0.77c-1.7,0.9-4.72,2.48-5.18,2.65c-0.42-1.71-1.46-3.15-3.33-3.35
		C14.9,108.71,13.7,109.31,13.25,110.41z M235.7,123.22c-0.03-0.68-0.03-1.35-0.02-2.01c0.01-0.51,0.05-1.43,0.11-2.76l-0.83-0.02
		c-0.08,0.96-0.16,1.36-0.27,1.47c-0.15,0.15-0.33,0.2-2.03,0.21c-3.15-0.02-4.41-0.05-6.61-0.13c-2.42-0.11-2.64-0.17-2.79-0.29
		c-0.18-0.13-0.2-0.42-0.26-1.49l-0.83-0.02c0.03,0.58,0.03,1.37,0.01,2.36c-0.01,0.76-0.05,1.5-0.1,2.23l0.83,0.02
		c0.07-0.84,0.1-1.29,0.32-1.48c0.21-0.18,0.67-0.14,2.19-0.15c2.54,0,5.08,0.06,7.62,0.11c-3.71,1.73-8.95,4.19-11.19,5.07
		l-0.01,0.66c3.25,1.51,6.5,3.17,10.99,5.5c-7.63-0.14-8.97-0.16-9.49-0.25c-0.24-0.05-0.39-0.14-0.46-0.25
		c-0.07-0.12-0.1-0.57-0.11-1.38l-0.83-0.01v3.03l-0.12,3.1l0.83,0.02c0.11-1.19,0.1-1.28,0.27-1.44c0.14-0.12,0.3-0.14,1.74-0.21
		c4.93,0.04,8.1,0.21,8.83,0.22c0.45,0.01,0.76,0.1,0.91,0.28c0.23,0.26,0.22,1.02,0.2,1.39l0.83,0.02l-0.01-2.9
		c0.01-0.24,0.04-0.78,0.1-1.63c-0.53-0.21-0.96-0.4-1.31-0.57c-0.34-0.16-1.26-0.62-2.75-1.36c-2.47-1.24-3.07-1.5-5.62-2.88
		c2.63-1.22,5.26-2.45,7.91-3.62L235.7,123.22z M32.78,190.42l0.65-0.49c-0.51-0.7-0.76-1.14-0.76-1.33c0-0.11,0.09-0.26,0.27-0.42
		c0.5-0.51,4.39-3.48,6.63-5.16c-0.1,1.11-1.74,8.41-2.91,12.54c1.75,2.14,2.15,2.81,2.49,3.29l0.65-0.49
		c-0.61-0.93-0.75-1.17-0.71-1.41c0.05-0.23,0.24-0.42,0.87-0.91c2.12-1.64,5.24-4.06,6.43-4.85c0.85-0.57,1.62-1.11,1.87-1.09
		c0.23,0.03,0.21,0.03,1.09,1.05l0.66-0.5c-0.99-1.2-2.2-2.8-2.84-3.69l-0.63,0.48c0.19,0.2,0.43,0.61,0.62,0.93
		c0.08,0.14,0.12,0.24,0.11,0.32c-0.01,0.23-0.17,0.37-1.1,1.14c-2.07,1.68-4.21,3.26-6.34,4.86c1.42-5.89,2.44-10.38,3.04-13.47
		c-0.28-0.5-0.55-0.99-0.8-1.48l-0.15-0.05c-0.75,0.7-5.43,4.32-8.26,6.34c-0.94,0.67-1.57,1.07-1.89,1.19
		c-0.06,0.02-0.12,0.02-0.18,0c-0.17-0.06-0.5-0.4-0.99-1.02l-0.65,0.49C31.55,188.65,31.91,189.16,32.78,190.42z M104.23,15.44
		c-0.58,0.06-1.19,0.17-1.83,0.31l-4.55,1.1l-3.38,0.7l0.18,0.8c0.65-0.1,1.23-0.2,1.43-0.11c0.14,0.07,0.29,0.46,0.46,1.15
		c0.68,2.53,1.47,5.9,1.89,8.23c0.22,1.21,0.3,1.69,0.21,1.91c-0.08,0.18-0.25,0.23-1.36,0.51l0.18,0.79c1.15-0.31,2-0.52,2.54-0.64
		l3.73-0.77l-0.17-0.75c-1.16,0.16-1.6,0.27-1.8,0.07c-0.09-0.09-0.21-0.43-0.39-1.02c-0.32-1.14-0.68-2.8-1-4.2
		c0.98-0.24,2.2-0.51,3.01-0.56c0.19,0,0.32,0.03,0.38,0.1c0.12,0.14,0.28,0.61,0.48,1.4l0.76-0.17c-0.38-1.67-0.66-3.05-0.86-4.13
		l-0.83,0.19c0.11,0.57,0.16,0.93,0.14,1.11c-0.01,0.13-0.06,0.22-0.13,0.26c-0.48,0.29-2.35,0.63-3.18,0.79
		c-0.35-1.58-0.82-3.56-0.96-4.78c0.62-0.18,1.18-0.33,1.88-0.5c1.3-0.29,2.13-0.25,2.32-0.17c0.04,0.01,0.08,0.04,0.11,0.08
		c0.08,0.09,0.33,1.03,0.45,1.5l0.78-0.17c-0.12-0.58-0.34-1.93-0.37-2.9L104.23,15.44z M23.31,91.69c-0.3,0.53-0.9,1.74-1.37,2.59
		c-0.62,1-1.19,1.6-2.58,1.2c-1.01-0.31-1.88-1.46-1.3-3.31c0.27-0.96,1.06-2.01,1.85-2.27c0.31,0.04,0.83,0.17,1.55,0.38l0.24-0.78
		c-1.07-0.37-1.79-0.65-2.62-1.12l-0.25,0.01c-0.76,0.8-1.41,2.12-1.78,3.3c-1.05,3.54,0.18,5.52,2.6,6.35
		c1.67,0.52,3.03,0.03,3.89-1.26c0.22-0.32,0.61-1,1.2-2.05c0.77-1.3,1.39-2.35,2.98-1.85c1.64,0.51,2.02,1.97,1.51,3.64
		c-0.25,0.94-1.23,2.32-2.41,2.62c-0.69-0.13-1.25-0.26-1.69-0.41L24.9,99.5c1.44,0.46,2.48,0.89,3.13,1.3
		c1.21-1.28,1.75-2.28,2.19-3.7c1.22-3.82-0.55-6.3-2.88-6.99C25.48,89.58,24.3,90.05,23.31,91.69z M201.9,186.78
		c2.18-3.05,5.64-3.04,8.48-0.93c1.38,1.03,2.19,2.2,2.42,3.51c0.23,1.31-0.11,2.57-1.02,3.8c-0.86,1.15-1.76,1.86-3.2,2.03
		c-0.38-0.21-0.85-0.53-1.43-0.94l-0.45,0.61c0.49,0.39,0.99,0.85,1.52,1.36c0.33,0.32,0.59,0.61,0.77,0.88l0.13,0.03
		c1.55-1.02,2.55-1.93,3.57-3.31c1.52-2.05,2.18-4.01,1.97-5.91c-0.2-1.89-1.13-3.45-2.76-4.67c-3.88-2.83-7.97-1.54-10.46,1.94
		c-1.2,1.61-1.58,2.61-1.85,4.36l0.52,0.94l0.32-0.06C200.67,188.9,201.09,187.86,201.9,186.78z"/>
</g>
</svg>
